<?xml version="1.0" encoding="utf-8"?>
<!-- Generator: Adobe Illustrator 27.5.0, SVG Export Plug-In . SVG Version: 6.00 Build 0)  -->
<svg version="1.1" xmlns="http://www.w3.org/2000/svg" xmlns:xlink="http://www.w3.org/1999/xlink" x="0px" y="0px"
	 viewBox="0 0 500 500" style="enable-background:new 0 0 500 500;" xml:space="preserve">
<g id="Background_Complete">
	<g>
		<g>
			<path style="fill:#EBEBEB;" d="M83.948,399.995l-10.627-7.312c0,0-6.139,8.923-15.522,2.702
				c-4.873-3.231-5.199-8.103-4.551-11.218c0.753-3.617,3.31-6.57,6.679-8.086c3.847-1.732,9.656-1.715,15.949,4.474l16.487-23.961
				l-10.508-7.23L72.197,363.4c0,0-17.359-6.331-28.534,9.911c-10.692,15.54,0.76,28.737,6.725,32.842
				C54.95,409.291,71.248,418.881,83.948,399.995z"/>
		</g>
		<g>
			
				<rect x="87.411" y="336.985" transform="matrix(-0.8238 -0.5668 0.5668 -0.8238 -23.2152 678.8442)" style="fill:#EBEBEB;" width="12.945" height="12.09"/>
		</g>
	</g>
	<g>
		<g>
			<path style="fill:#EBEBEB;" d="M129.259,429.389l5.643-1.488c0,0-1.25-4.738,3.652-6.122c2.546-0.719,4.314,0.607,5.191,1.748
				c1.019,1.325,1.277,3.074,0.804,4.677c-0.541,1.831-2.26,3.818-6.24,4.151l3.356,12.724l5.58-1.472l-1.966-7.453
				c0,0,7.292-4.087,5.017-12.712c-2.177-8.252-10.082-8.216-13.25-7.381C134.623,416.699,126.526,419.462,129.259,429.389z"/>
		</g>
		<g>
			
				<rect x="142.941" y="446.866" transform="matrix(0.9669 -0.2551 0.2551 0.9669 -109.8482 52.0742)" style="fill:#EBEBEB;" width="5.857" height="5.47"/>
		</g>
	</g>
	<g>
		<g>
			<g>
				<path style="fill:#F5F5F5;" d="M222.996,73.071c2.891-1.747,5.969-3.072,9.143-3.974l1.883-9.05l15.291-0.268l2.201,8.978
					c3.204,0.79,6.327,2.005,9.278,3.65l7.728-5.066l11.002,10.623l-4.79,7.9c1.748,2.892,3.072,5.971,3.973,9.146l9.049,1.883
					l0.269,15.291l-8.978,2.201c-0.789,3.204-2.005,6.326-3.65,9.277l5.065,7.729l-10.622,11.002l-7.901-4.79
					c-2.892,1.747-5.97,3.072-9.145,3.973l-1.884,9.05l-15.29,0.268l-2.201-8.979c-3.204-0.79-6.326-2.006-9.277-3.65l-7.728,5.066
					l-11.002-10.623l4.79-7.9c-1.747-2.892-3.073-5.97-3.974-9.145l-9.05-1.883l-0.268-15.291l8.978-2.201
					c0.79-3.204,2.006-6.326,3.65-9.277l-5.065-7.728l10.622-11.002L222.996,73.071L222.996,73.071z M231.147,93.44
					c-6.294,6.519-6.111,16.905,0.408,23.198c6.519,6.293,16.905,6.111,23.198-0.408c6.293-6.518,6.111-16.905-0.408-23.198
					C247.826,86.74,237.44,86.922,231.147,93.44z"/>
			</g>
		</g>
	</g>
	<g>
		<g>
			<g>
				<path style="fill:#EBEBEB;" d="M158.96,41.195c1.665-1.006,3.438-1.769,5.266-2.289l1.085-5.213l8.807-0.154l1.267,5.171
					c1.846,0.455,3.644,1.155,5.344,2.102l4.451-2.918l6.337,6.119l-2.759,4.55c1.007,1.666,1.77,3.439,2.289,5.267l5.212,1.085
					l0.155,8.807l-5.171,1.268c-0.455,1.845-1.155,3.644-2.102,5.343l2.917,4.451l-6.118,6.337l-4.551-2.759
					c-1.665,1.007-3.439,1.769-5.267,2.288l-1.085,5.213l-8.807,0.155l-1.268-5.171c-1.845-0.455-3.644-1.155-5.343-2.102
					l-4.451,2.918l-6.337-6.118l2.759-4.55c-1.006-1.666-1.77-3.438-2.289-5.267l-5.212-1.085l-0.155-8.807l5.171-1.268
					c0.455-1.845,1.156-3.644,2.102-5.343l-2.917-4.451l6.118-6.337L158.96,41.195L158.96,41.195z M163.655,52.927
					c-3.625,3.755-3.52,9.736,0.235,13.361c3.755,3.625,9.737,3.52,13.361-0.235c3.625-3.754,3.52-9.737-0.235-13.361
					C173.261,49.068,167.279,49.173,163.655,52.927z"/>
			</g>
		</g>
	</g>
	<g>
		<g>
			<g>
				<path style="fill:#EBEBEB;" d="M440.066,204.712c1.665-1.006,3.438-1.769,5.266-2.289l1.085-5.213l8.807-0.155l1.267,5.171
					c1.846,0.455,3.644,1.155,5.344,2.102l4.451-2.918l6.337,6.119l-2.759,4.55c1.007,1.666,1.77,3.439,2.289,5.268l5.212,1.085
					l0.155,8.807l-5.171,1.268c-0.455,1.845-1.155,3.643-2.102,5.343l2.917,4.451l-6.118,6.337l-4.551-2.759
					c-1.665,1.007-3.439,1.769-5.267,2.288l-1.085,5.213l-8.807,0.154l-1.268-5.171c-1.845-0.455-3.644-1.155-5.343-2.102
					l-4.451,2.918l-6.337-6.118l2.759-4.55c-1.007-1.666-1.77-3.438-2.289-5.267l-5.212-1.085l-0.155-8.807l5.171-1.268
					c0.455-1.845,1.155-3.644,2.102-5.343l-2.917-4.451l6.118-6.337L440.066,204.712L440.066,204.712z M444.761,216.444
					c-3.625,3.755-3.52,9.736,0.235,13.361c3.754,3.625,9.737,3.52,13.361-0.235c3.625-3.755,3.52-9.737-0.235-13.361
					C454.368,212.585,448.386,212.69,444.761,216.444z"/>
			</g>
		</g>
	</g>
</g>
<g id="Background_Simple" style="display:none;">
	<g style="display:inline;">
		<path style="fill:#EBEBEB;" d="M58.739,97.092l2.434-4.011c20.516-33.808,57.609-54.188,96.717-51.715
			c5.027,0.318,10.033,0.998,14.971,2.056c35.557,7.611,66.497,34.5,79.321,68.937c7.542,20.253,9.649,43.572,23.962,59.647
			c18.627,20.922,50.251,21.579,78.055,20.712c27.804-0.867,59.449-0.128,77.985,20.877c11.609,13.154,15.299,31.861,14.362,49.478
			c-2.478,46.641-34.979,88.345-76.311,109.074c-41.332,20.729-89.996,22.586-135.232,13.467
			c-63.37-12.774-123.634-47.855-159.857-102.039C38.925,229.393,29.757,155.573,58.739,97.092z"/>
	</g>
	<g style="display:inline;">
		<circle style="fill:#EBEBEB;" cx="70.957" cy="369.586" r="25.081"/>
	</g>
</g>
<g id="Floor">
	<g>
		<g>
			<path style="fill:#263238;" d="M463.779,465.311c0,0.144-94.824,0.26-211.769,0.26c-116.986,0-211.79-0.117-211.79-0.26
				s94.804-0.26,211.79-0.26C368.955,465.051,463.779,465.168,463.779,465.311z"/>
		</g>
	</g>
</g>
<g id="Device">
	<g>
		<g>
			<g>
				<g>
					<g>
						<g>
							<g>
								<g>
									<path style="fill:#455A64;" d="M417.656,464.585L275.64,464.5c-17.08-0.009-30.921-13.861-30.917-30.941l0.07-356.036
										c0.003-17.09,13.863-30.939,30.953-30.93l142.016,0.083c17.08,0.01,30.92,13.861,30.917,30.942l-0.07,356.037
										C448.606,450.746,434.746,464.595,417.656,464.585z"/>
								</g>
							</g>
						</g>
					</g>
				</g>
				<g>
					<g>
						<g>
							<g>
								<g>
									<path style="fill:#FFFFFF;" d="M417.612,59.27l-27.534-0.016c-3.692-0.002-6.687,3.126-6.687,6.986l-0.002,4.994
										c0,3.86-2.995,6.988-6.687,6.986l-53.671-0.032c-3.692-0.002-6.685-3.133-6.685-6.993l0.001-4.994
										c0-3.86-2.993-6.992-6.685-6.993l-9.684-0.006l-24.099-0.014c-11.969-0.007-21.675,9.693-21.678,21.661l-0.068,347.517
										c-0.003,11.964,9.69,21.664,21.653,21.671l141.732,0.083c11.968,0.007,21.675-9.692,21.678-21.661l0.068-347.518
										C439.266,68.977,429.574,59.277,417.612,59.27z"/>
								</g>
							</g>
						</g>
					</g>
				</g>
			</g>
			<g>
				<path style="fill:#EBEBEB;" d="M439.254,132.314V80.539c-0.212-11.777-9.815-21.262-21.642-21.269l-27.535-0.016
					c-3.692-0.002-6.687,3.126-6.687,6.985l-0.002,4.995c0,3.86-2.995,6.988-6.687,6.986l-53.671-0.032
					c-3.692-0.002-6.685-3.133-6.685-6.993l0.001-4.995c0-3.86-2.993-6.991-6.685-6.993l-9.684-0.006l-24.099-0.014
					c-11.969-0.007-21.676,9.693-21.678,21.661l-0.01,51.617h185.063L439.254,132.314z"/>
			</g>
		</g>
		<g>
			<g>
				<g>
					<ellipse style="fill:#E0E0E0;" cx="291.937" cy="180.151" rx="22.43" ry="22.383"/>
				</g>
			</g>
			<g>
				<g>
					<g>
						<g>
							<g>
								<g>
									<g>
										<g>
											<g>
												<path style="fill:#455A64;" d="M281.464,185.752l5.871-0.498l14.344,2.416l1.693,10.791l-0.24,1.255
													c-6.935,3.849-14.692,3.754-21.262,0.489L281.464,185.752"/>
											</g>
										</g>
									</g>
								</g>
							</g>
						</g>
					</g>
					<g>
						<g>
							<g>
								<g>
									<g>
										<g>
											<g>
												<path style="fill:#455A64;" d="M298.612,187.497c0,0,4.518-0.894,7.439,3.27c1.788,2.548,2.665,4.237,2.665,4.237
													c-2.332,2.536-4.231,4.467-7.476,5.593L298.612,187.497z"/>
											</g>
										</g>
									</g>
								</g>
							</g>
						</g>
					</g>
				</g>
				<g>
					<g>
						<g>
							<g>
								<g>
									<g>
										<g>
											<g>
												<path style="fill:#455A64;" d="M281.464,185.752c0,0-3.881,0.475-5.388,3.783c-1.507,3.309-1.849,4.349-1.849,4.349
													c2.009,2.414,4.56,5.272,7.689,6.344c0,0,0.714-8.335,0.809-10.693C282.828,186.952,282.929,185.678,281.464,185.752z"
													/>
											</g>
										</g>
									</g>
								</g>
							</g>
						</g>
					</g>
				</g>
			</g>
			<g>
				<g>
					<g>
						<g>
							<g>
								<path style="fill:#263238;" d="M285.017,164.552c2.096-2.556,4.911-4.028,8.221-4.083c1.867-0.031,2.64,0.356,3.985,0.718
									c1.345,0.362,2.558,1.082,3.36,2.218c0.953,1.349,1.753,2.861,1.933,4.502c0.185,1.686,0.37,3.382,0.243,5.073
									c-0.127,1.691-0.588,3.394-1.586,4.766l-4.311,0.747c-2.381,0.081-4.795,0.159-7.115-0.383
									c-2.32-0.542-4.574-1.788-5.816-3.816C282.204,171.476,282.921,167.108,285.017,164.552z"/>
							</g>
						</g>
					</g>
					<g>
						<g>
							<g>
								<path style="fill:#263238;" d="M280.838,177.042c0.107-0.971,0.617-1.924,1.46-2.421c0.843-0.497,2.02-0.445,2.722,0.235
									l0.677,0.806c1.062,0.451,1.729,1.656,1.601,2.8c-0.128,1.145-1.01,2.154-2.115,2.49c-1.104,0.336-2.37,0.011-3.214-0.775
									C281.125,179.391,280.712,178.187,280.838,177.042z"/>
							</g>
						</g>
					</g>
					<g>
						<g>
							<g>
								<g>
									<path style="fill:#455A64;" d="M281.693,179.943c0.031-0.015-0.268-0.29-0.232-0.856c0.036-0.551,0.437-1.273,0.987-1.934
										c0.561-0.665,1.222-1.119,1.728-1.382c0.505-0.271,0.852-0.369,0.842-0.405c-0.004-0.021-0.37,0.027-0.908,0.271
										c-0.537,0.235-1.24,0.688-1.823,1.38c-0.292,0.343-0.526,0.707-0.697,1.058c-0.173,0.349-0.281,0.702-0.278,1.008
										c-0.001,0.306,0.098,0.544,0.193,0.682C281.602,179.904,281.685,179.952,281.693,179.943z"/>
								</g>
							</g>
						</g>
					</g>
					<g>
						<g>
							<g>
								<g>
									<g>
										<g>
											<g>
												<g>
													<g>
														<path style="fill:#FFBE9D;" d="M296.822,186.727c0,0-0.023-3.998-0.023-3.992c0,0,3.516-0.386,4.487-4.883
															c0.483-2.236,0.573-5.941,0.548-8.975c-0.022-2.731-2.352-6.449-5.731-6.461l-1.501-0.174l-5.748,2.28
															c-0.83,0.042-1.49,0.711-1.519,1.54l-0.173,19.205l2.633,3.69C291.978,192.02,296.804,190.488,296.822,186.727
															L296.822,186.727L296.822,186.727z"/>
													</g>
												</g>
											</g>
										</g>
									</g>
								</g>
							</g>
							<g>
								<g>
									<g>
										<path style="fill:#EB996E;" d="M294.527,176.801c0.031-0.237,0.163-0.447,0.332-0.59c0.337-0.288,0.829-0.316,1.189-0.068
											c0.36,0.248,0.567,0.757,0.499,1.23l0,0c-0.202,0.277-0.512,0.465-0.854,0.494c-0.053,0.005-0.107,0.007-0.16,0.005
											c-0.26-0.007-0.524-0.094-0.722-0.285C294.611,177.396,294.488,177.093,294.527,176.801z"/>
									</g>
								</g>
							</g>
							<g>
								<g>
									<g>
										<g>
											<g>
												<g>
													<g>
														<g>
															<g>
																<g>
																	<g>
																		<g>
																			<g>
																				<g>
																					<g>
																						<g>
																							<g>
																								<g>
																									<g>
																										<g>
																											<g>
																												<path style="fill:#263238;" d="M299.761,172.012c-0.006,0.308-0.272,0.557-0.594,0.556
																													c-0.322,0-0.578-0.25-0.572-0.557c0.006-0.308,0.272-0.557,0.594-0.557
																													C299.511,171.455,299.767,171.705,299.761,172.012z"/>
																											</g>
																										</g>
																									</g>
																								</g>
																							</g>
																						</g>
																					</g>
																				</g>
																			</g>
																		</g>
																	</g>
																</g>
															</g>
														</g>
													</g>
												</g>
											</g>
										</g>
										<g>
											<g>
												<g>
													<g>
														<g>
															<g>
																<g>
																	<g>
																		<g>
																			<g>
																				<g>
																					<g>
																						<g>
																							<g>
																								<g>
																									<g>
																										<g>
																											<g>
																												<g>
																													<path style="fill:#263238;" d="M300.715,170.562c-0.076,0.072-0.5-0.278-1.128-0.311
																														c-0.626-0.042-1.104,0.255-1.168,0.175c-0.032-0.036,0.05-0.169,0.258-0.303
																														c0.205-0.134,0.55-0.257,0.94-0.234c0.391,0.024,0.711,0.185,0.892,0.342
																														C300.695,170.39,300.753,170.53,300.715,170.562z"/>
																												</g>
																											</g>
																										</g>
																									</g>
																								</g>
																							</g>
																						</g>
																					</g>
																				</g>
																			</g>
																		</g>
																	</g>
																</g>
															</g>
														</g>
													</g>
												</g>
											</g>
										</g>
										<g>
											<g>
												<g>
													<g>
														<g>
															<g>
																<g>
																	<g>
																		<g>
																			<g>
																				<g>
																					<g>
																						<g>
																							<g>
																								<g>
																									<g>
																										<g>
																											<g>
																												<path style="fill:#263238;" d="M296.773,175.305c-0.001-0.036,0.393-0.082,1.029-0.128
																													c0.161-0.008,0.315-0.031,0.348-0.139c0.044-0.114-0.013-0.289-0.081-0.48
																													c-0.129-0.395-0.265-0.809-0.407-1.243c-0.562-1.769-0.96-3.22-0.889-3.242
																													c0.072-0.022,0.586,1.394,1.148,3.163c0.135,0.436,0.264,0.852,0.386,1.249
																													c0.051,0.185,0.143,0.397,0.049,0.632c-0.05,0.117-0.172,0.197-0.276,0.219
																													c-0.104,0.026-0.195,0.022-0.274,0.023C297.168,175.359,296.773,175.34,296.773,175.305z"/>
																											</g>
																										</g>
																									</g>
																								</g>
																							</g>
																						</g>
																					</g>
																				</g>
																			</g>
																		</g>
																	</g>
																</g>
															</g>
														</g>
													</g>
												</g>
											</g>
										</g>
										<g>
											<g>
												<g>
													<g>
														<g>
															<g>
																<g>
																	<g>
																		<g>
																			<g>
																				<g>
																					<g>
																						<g>
																							<g>
																								<g>
																									<g>
																										<g>
																											<path style="fill:#EB996E;" d="M296.799,182.736c0,0-3.069,0.029-5.999-1.954
																												c0,0,1.449,3.233,6.022,3.057L296.799,182.736z"/>
																										</g>
																									</g>
																								</g>
																							</g>
																						</g>
																					</g>
																				</g>
																			</g>
																		</g>
																	</g>
																</g>
															</g>
														</g>
													</g>
												</g>
											</g>
										</g>
										<g>
											<g>
												<g>
													<g>
														<g>
															<g>
																<g>
																	<g>
																		<g>
																			<g>
																				<g>
																					<g>
																						<g>
																							<g>
																								<g>
																									<g>
																										<g>
																											<g>
																												<path style="fill:#263238;" d="M294.903,175.636c0.102,0,0.066,0.679,0.623,1.193
																													c0.555,0.516,1.285,0.479,1.285,0.574c0.007,0.043-0.169,0.123-0.476,0.115
																													c-0.301-0.006-0.735-0.127-1.075-0.441c-0.34-0.315-0.471-0.718-0.479-0.998
																													C294.771,175.794,294.857,175.63,294.903,175.636z"/>
																											</g>
																										</g>
																									</g>
																								</g>
																							</g>
																						</g>
																					</g>
																				</g>
																			</g>
																		</g>
																	</g>
																</g>
															</g>
														</g>
													</g>
												</g>
											</g>
										</g>
										<g>
											<g>
												<g>
													<g>
														<g>
															<g>
																<g>
																	<g>
																		<g>
																			<g>
																				<g>
																					<g>
																						<g>
																							<g>
																								<g>
																									<g>
																										<g>
																											<g>
																												<g>
																													<g>
																														<path style="fill:#263238;" d="M300.591,168.203c-0.114,0.147-0.589,0.019-1.152,0.035
																															c-0.564-0.002-1.037,0.138-1.153-0.007c-0.051-0.07,0.018-0.216,0.221-0.359
																															c0.2-0.143,0.539-0.266,0.927-0.271c0.388-0.004,0.728,0.111,0.93,0.249
																															C300.569,167.988,300.641,168.131,300.591,168.203z"/>
																													</g>
																												</g>
																											</g>
																										</g>
																									</g>
																								</g>
																							</g>
																						</g>
																					</g>
																				</g>
																			</g>
																		</g>
																	</g>
																</g>
															</g>
														</g>
													</g>
												</g>
											</g>
										</g>
										<g>
											<g>
												<g>
													<g>
														<g>
															<g>
																<g>
																	<g>
																		<g>
																			<g>
																				<g>
																					<g>
																						<g>
																							<g>
																								<g>
																									<g>
																										<g>
																											<g>
																												<path style="fill:#263238;" d="M292.882,171.97c-0.016,0.307,0.231,0.575,0.553,0.598
																													c0.321,0.023,0.595-0.207,0.611-0.515c0.016-0.307-0.231-0.575-0.552-0.598
																													C293.173,171.432,292.899,171.663,292.882,171.97z"/>
																											</g>
																										</g>
																									</g>
																								</g>
																							</g>
																						</g>
																					</g>
																				</g>
																			</g>
																		</g>
																	</g>
																</g>
															</g>
														</g>
													</g>
												</g>
											</g>
										</g>
										<g>
											<g>
												<g>
													<g>
														<g>
															<g>
																<g>
																	<g>
																		<g>
																			<g>
																				<g>
																					<g>
																						<g>
																							<g>
																								<g>
																									<g>
																										<g>
																											<g>
																												<g>
																													<path style="fill:#263238;" d="M292.119,170.338c0.071,0.077,0.519-0.242,1.147-0.229
																														c0.628,0.003,1.083,0.334,1.152,0.258c0.034-0.033-0.038-0.172-0.235-0.321
																														c-0.195-0.149-0.53-0.296-0.921-0.301c-0.391-0.005-0.723,0.133-0.915,0.277
																														C292.152,170.167,292.084,170.303,292.119,170.338z"/>
																												</g>
																											</g>
																										</g>
																									</g>
																								</g>
																							</g>
																						</g>
																					</g>
																				</g>
																			</g>
																		</g>
																	</g>
																</g>
															</g>
														</g>
													</g>
												</g>
											</g>
										</g>
										<g>
											<g>
												<g>
													<g>
														<g>
															<g>
																<g>
																	<g>
																		<g>
																			<g>
																				<g>
																					<g>
																						<g>
																							<g>
																								<g>
																									<g>
																										<g>
																											<g>
																												<g>
																													<g>
																														<path style="fill:#263238;" d="M291.758,168.992c0.121,0.144,0.608,0.005,1.191,0.008
																															c0.583-0.015,1.074,0.114,1.191-0.032c0.051-0.072-0.024-0.215-0.238-0.354
																															c-0.21-0.138-0.564-0.254-0.964-0.25c-0.401,0.005-0.75,0.127-0.955,0.27
																															C291.775,168.777,291.705,168.922,291.758,168.992z"/>
																													</g>
																												</g>
																											</g>
																										</g>
																									</g>
																								</g>
																							</g>
																						</g>
																					</g>
																				</g>
																			</g>
																		</g>
																	</g>
																</g>
															</g>
														</g>
													</g>
												</g>
											</g>
										</g>
									</g>
								</g>
							</g>
							<g>
								<g>
									<g>
										<g>
											<g>
												<g>
													<g>
														<g>
															<g>
																<g>
																	<g>
																		<g>
																			<g>
																				<g>
																					<g>
																						<g>
																							<g>
																								<g>
																									<path style="fill:#FFBE9D;" d="M288.115,173.686c0.018-0.338-0.33-1.156-0.661-1.226
																										c-0.885-0.188-2.498-0.204-2.637,2.057c-0.191,3.091,2.959,2.645,2.97,2.556
																										C287.795,177.004,288.054,174.852,288.115,173.686z"/>
																								</g>
																							</g>
																						</g>
																					</g>
																				</g>
																			</g>
																		</g>
																	</g>
																</g>
															</g>
														</g>
													</g>
												</g>
											</g>
										</g>
									</g>
								</g>
								<g>
									<g>
										<g>
											<g>
												<g>
													<g>
														<g>
															<g>
																<g>
																	<g>
																		<g>
																			<g>
																				<g>
																					<g>
																						<g>
																							<g>
																								<g>
																									<g>
																										<path style="fill:#EB996E;" d="M287.001,175.891c-0.013-0.011-0.056,0.035-0.15,0.071
																											c-0.092,0.035-0.246,0.054-0.404-0.016c-0.32-0.14-0.564-0.675-0.544-1.234
																											c0.009-0.282,0.085-0.546,0.199-0.762c0.109-0.22,0.265-0.369,0.432-0.388
																											c0.166-0.028,0.277,0.078,0.309,0.167c0.036,0.089,0.013,0.15,0.029,0.156
																											c0.008,0.008,0.07-0.048,0.053-0.177c-0.009-0.062-0.041-0.137-0.11-0.201
																											c-0.071-0.065-0.178-0.102-0.294-0.097c-0.24,0.002-0.468,0.208-0.593,0.445
																											c-0.138,0.237-0.23,0.534-0.24,0.85c-0.019,0.624,0.265,1.227,0.705,1.383
																											c0.214,0.07,0.4,0.016,0.499-0.052C286.991,175.966,287.012,175.898,287.001,175.891z"/>
																									</g>
																								</g>
																							</g>
																						</g>
																					</g>
																				</g>
																			</g>
																		</g>
																	</g>
																</g>
															</g>
														</g>
													</g>
												</g>
											</g>
										</g>
									</g>
								</g>
							</g>
						</g>
					</g>
					<g>
						<g>
							<g>
								<g>
									<path style="fill:#263238;" d="M287.327,172.468l0.787,0.815c3.399-3.247,10.042-11.376,9.671-10.891
										c0,0-2.328-0.956-4.856-0.526c-2.527,0.43-7.322,1.692-7.248,4.667C285.755,169.507,287.327,172.468,287.327,172.468z"/>
								</g>
							</g>
						</g>
					</g>
				</g>
				<g>
					<g>
						<g>
							<g>
								<path style="fill:#455A64;" d="M282.826,171.786c-0.005-0.002,0.011-0.063,0.047-0.179c0.037-0.115,0.104-0.283,0.211-0.487
									c0.216-0.407,0.628-0.958,1.295-1.454c0.657-0.509,1.569-0.925,2.607-1.251c1.036-0.337,2.205-0.598,3.351-1.09
									c1.154-0.473,2.183-1.083,3.061-1.711c0.875-0.635,1.597-1.293,2.16-1.885c0.564-0.593,0.973-1.114,1.249-1.479
									c0.127-0.174,0.23-0.315,0.311-0.426c0.072-0.097,0.112-0.147,0.117-0.144c0.005,0.003-0.026,0.058-0.09,0.161
									c-0.065,0.102-0.156,0.255-0.287,0.444c-0.262,0.378-0.66,0.913-1.218,1.52c-0.557,0.606-1.278,1.279-2.156,1.926
									c-0.881,0.641-1.919,1.261-3.086,1.739c-1.162,0.497-2.338,0.756-3.368,1.083c-1.034,0.317-1.931,0.714-2.584,1.202
									c-0.663,0.475-1.079,1.003-1.308,1.394C282.911,171.545,282.842,171.792,282.826,171.786z"/>
							</g>
						</g>
					</g>
				</g>
				<g>
					<g>
						<g>
							<g>
								<path style="fill:#455A64;" d="M283.727,172.273c0,0-0.031-0.253,0.12-0.676c0.144-0.419,0.511-0.989,1.164-1.456
									c0.647-0.482,1.57-0.78,2.585-1.011c1.019-0.225,2.125-0.511,3.212-1.017c1.086-0.502,2.06-1.11,2.864-1.764
									c0.809-0.65,1.461-1.324,1.963-1.926c0.509-0.598,0.85-1.137,1.095-1.502c0.107-0.176,0.193-0.319,0.263-0.433
									c0.062-0.098,0.096-0.149,0.101-0.146c0.005,0.003-0.021,0.058-0.073,0.161c-0.063,0.118-0.141,0.267-0.238,0.449
									c-0.229,0.376-0.559,0.928-1.061,1.541c-0.496,0.616-1.146,1.305-1.958,1.968c-0.808,0.668-1.791,1.287-2.89,1.795
									c-1.098,0.512-2.229,0.8-3.245,1.015c-1.013,0.223-1.918,0.504-2.553,0.96c-0.644,0.443-1.013,0.984-1.171,1.386
									C283.74,172.024,283.749,172.276,283.727,172.273z"/>
							</g>
						</g>
					</g>
				</g>
			</g>
			<g>
				<g>
					<g>
						<path style="fill:#263238;" d="M281.916,200.206c-0.057,0-0.103-1.324-0.103-2.956c0-1.633,0.046-2.956,0.103-2.956
							c0.057,0,0.104,1.323,0.104,2.956C282.019,198.882,281.973,200.206,281.916,200.206z"/>
					</g>
				</g>
			</g>
			<g>
				<g>
					<g>
						<path style="fill:#263238;" d="M303.141,199.794c-0.031-0.003-0.002-0.405,0.035-1.05c0.03-0.645,0.071-1.54-0.087-2.506
							c-0.163-0.965-0.489-1.803-0.72-2.408c-0.239-0.603-0.39-0.977-0.362-0.99c0.024-0.01,0.223,0.342,0.497,0.935
							c0.267,0.594,0.621,1.438,0.789,2.431c0.162,0.994,0.095,1.905,0.028,2.55C303.247,199.402,303.167,199.796,303.141,199.794z"
							/>
					</g>
				</g>
			</g>
		</g>
		<g>
			<path style="fill:#EBEBEB;" d="M411.076,208.568h-76.443c-3.796,0-6.873-3.077-6.873-6.873v-32.099l-8.427-7.481h8.427h83.316
				c3.796,0,6.873,3.077,6.873,6.873v32.707C417.949,205.491,414.871,208.568,411.076,208.568z"/>
		</g>
		<g>
			<g>
				<path style="fill:#E0E0E0;" d="M405.836,213.769c0,0.144-3.651,0.26-8.154,0.26c-4.505,0-8.155-0.117-8.155-0.26
					c0-0.144,3.65-0.26,8.155-0.26C402.185,213.508,405.836,213.625,405.836,213.769z"/>
			</g>
		</g>
		<g>
			<g>
				<path style="fill:#FF725E;" d="M409.211,214.411c-0.087-0.011-0.134-0.028-0.181-0.077l-1.577-1.652
					c-0.096-0.1-0.092-0.258,0.008-0.354c0.1-0.094,0.259-0.092,0.353,0.008l1.399,1.465l3.065-3.119
					c0.099-0.098,0.257-0.099,0.354-0.003c0.099,0.097,0.101,0.255,0.004,0.354l-3.247,3.303
					C409.341,214.384,409.278,214.411,409.211,214.411z"/>
			</g>
			<g>
				<path style="fill:#FF725E;" d="M411.464,214.359c-0.002,0-0.004,0-0.006,0l-0.29-0.007c-0.139-0.003-0.247-0.118-0.244-0.256
					c0.004-0.138,0.136-0.244,0.256-0.244l0.182,0.005l3.171-3.227c0.099-0.098,0.257-0.099,0.353-0.003
					c0.099,0.097,0.101,0.255,0.004,0.354l-3.247,3.304C411.595,214.332,411.532,214.359,411.464,214.359z"/>
			</g>
		</g>
		<g>
			<g>
				<path style="fill:#E0E0E0;" d="M405.836,339.44c0,0.144-3.651,0.26-8.154,0.26c-4.505,0-8.155-0.117-8.155-0.26
					c0-0.144,3.65-0.26,8.155-0.26C402.185,339.179,405.836,339.296,405.836,339.44z"/>
			</g>
		</g>
		<g>
			<g>
				<path style="fill:#FF725E;" d="M409.211,340.081c-0.001,0-0.001,0-0.002,0c-0.067,0-0.132-0.028-0.179-0.077l-1.577-1.651
					c-0.096-0.1-0.092-0.258,0.008-0.354c0.1-0.094,0.259-0.091,0.353,0.008l1.399,1.465l3.065-3.119
					c0.099-0.099,0.257-0.101,0.354-0.004c0.099,0.098,0.101,0.256,0.004,0.354l-3.247,3.304
					C409.341,340.054,409.278,340.081,409.211,340.081z"/>
			</g>
			<g>
				<path style="fill:#FF725E;" d="M411.464,340.03c-0.002,0-0.005,0-0.007,0l-0.29-0.008c-0.138-0.004-0.247-0.119-0.243-0.257
					c0.004-0.138,0.107-0.269,0.257-0.243l0.182,0.005l3.17-3.226c0.099-0.1,0.257-0.1,0.353-0.004
					c0.099,0.098,0.101,0.256,0.004,0.353l-3.247,3.304C411.595,340.002,411.532,340.03,411.464,340.03z"/>
			</g>
		</g>
		<g>
			<g>
				<path style="fill:#FFFFFF;" d="M410.098,171.307c0,0.144-16.69,0.26-37.273,0.26c-20.59,0-37.276-0.117-37.276-0.26
					s16.686-0.26,37.276-0.26C393.408,171.047,410.098,171.163,410.098,171.307z"/>
			</g>
		</g>
		<g>
			<g>
				<path style="fill:#FFFFFF;" d="M410.098,176.784c0,0.144-16.69,0.26-37.273,0.26c-20.59,0-37.276-0.117-37.276-0.26
					s16.686-0.26,37.276-0.26C393.408,176.523,410.098,176.64,410.098,176.784z"/>
			</g>
		</g>
		<g>
			<g>
				<path style="fill:#FFFFFF;" d="M410.098,182.26c0,0.144-16.69,0.26-37.273,0.26c-20.59,0-37.276-0.117-37.276-0.26
					s16.686-0.26,37.276-0.26C393.408,182,410.098,182.116,410.098,182.26z"/>
			</g>
		</g>
		<g>
			<g>
				<g>
					<ellipse style="fill:#E0E0E0;" cx="291.937" cy="319.717" rx="22.43" ry="22.383"/>
				</g>
			</g>
			<g>
				<g>
					<g>
						<g>
							<g>
								<g>
									<g>
										<g>
											<g>
												<path style="fill:#455A64;" d="M281.464,325.318l5.871-0.498l14.344,2.416l1.693,10.791l-0.24,1.255
													c-6.935,3.849-14.692,3.754-21.262,0.489L281.464,325.318"/>
											</g>
										</g>
									</g>
								</g>
							</g>
						</g>
					</g>
					<g>
						<g>
							<g>
								<g>
									<g>
										<g>
											<g>
												<path style="fill:#455A64;" d="M298.612,327.064c0,0,4.518-0.894,7.439,3.27c1.788,2.548,2.665,4.237,2.665,4.237
													c-2.332,2.536-4.231,4.467-7.476,5.594L298.612,327.064z"/>
											</g>
										</g>
									</g>
								</g>
							</g>
						</g>
					</g>
				</g>
				<g>
					<g>
						<g>
							<g>
								<g>
									<g>
										<g>
											<g>
												<path style="fill:#455A64;" d="M281.464,325.318c0,0-3.881,0.475-5.388,3.784c-1.507,3.309-1.849,4.349-1.849,4.349
													c2.009,2.414,4.56,5.272,7.689,6.344c0,0,0.714-8.335,0.809-10.693C282.828,326.519,282.929,325.244,281.464,325.318z"
													/>
											</g>
										</g>
									</g>
								</g>
							</g>
						</g>
					</g>
				</g>
			</g>
			<g>
				<g>
					<g>
						<g>
							<g>
								<path style="fill:#263238;" d="M285.017,304.118c2.096-2.556,4.911-4.028,8.221-4.083c1.867-0.031,2.64,0.356,3.985,0.719
									c1.345,0.362,2.558,1.082,3.36,2.218c0.953,1.349,1.753,2.861,1.933,4.501c0.185,1.686,0.37,3.383,0.243,5.073
									c-0.127,1.691-0.588,3.394-1.586,4.766l-4.311,0.747c-2.381,0.081-4.795,0.159-7.115-0.383
									c-2.32-0.542-4.574-1.788-5.816-3.816C282.204,311.043,282.921,306.675,285.017,304.118z"/>
							</g>
						</g>
					</g>
					<g>
						<g>
							<g>
								<path style="fill:#263238;" d="M280.838,316.608c0.107-0.971,0.617-1.924,1.46-2.421c0.843-0.497,2.02-0.445,2.722,0.235
									l0.677,0.806c1.062,0.451,1.729,1.656,1.601,2.801c-0.128,1.145-1.01,2.154-2.115,2.49c-1.104,0.336-2.37,0.01-3.214-0.775
									C281.125,318.958,280.712,317.753,280.838,316.608z"/>
							</g>
						</g>
					</g>
					<g>
						<g>
							<g>
								<g>
									<path style="fill:#455A64;" d="M281.693,319.509c0.031-0.015-0.268-0.29-0.232-0.856c0.036-0.551,0.437-1.273,0.987-1.934
										c0.561-0.665,1.222-1.119,1.728-1.382c0.505-0.271,0.852-0.369,0.842-0.405c-0.004-0.021-0.37,0.027-0.908,0.271
										c-0.537,0.235-1.24,0.688-1.823,1.38c-0.292,0.343-0.526,0.707-0.697,1.058c-0.173,0.349-0.281,0.702-0.278,1.008
										c-0.001,0.307,0.098,0.544,0.193,0.682C281.602,319.47,281.685,319.519,281.693,319.509z"/>
								</g>
							</g>
						</g>
					</g>
					<g>
						<g>
							<g>
								<g>
									<g>
										<g>
											<g>
												<g>
													<g>
														<path style="fill:#FFBE9D;" d="M296.842,326.66c0,0-0.023-3.999-0.023-3.991c0,0,3.516-0.387,4.487-4.883
															c0.483-2.236,0.573-5.941,0.548-8.974c-0.022-2.731-2.352-6.449-5.731-6.461l-1.501-0.174l-5.748,2.28
															c-0.83,0.042-1.49,0.711-1.519,1.54l-0.173,19.205l2.633,3.69C291.998,331.953,296.824,330.421,296.842,326.66
															L296.842,326.66L296.842,326.66z"/>
													</g>
												</g>
											</g>
										</g>
									</g>
								</g>
							</g>
							<g>
								<g>
									<g>
										<path style="fill:#EB996E;" d="M294.527,316.367c0.031-0.237,0.163-0.447,0.332-0.59c0.337-0.288,0.829-0.316,1.189-0.068
											c0.36,0.248,0.567,0.757,0.499,1.23l0,0c-0.202,0.277-0.512,0.465-0.854,0.494c-0.053,0.004-0.107,0.006-0.16,0.005
											c-0.26-0.007-0.524-0.094-0.722-0.285C294.611,316.962,294.488,316.659,294.527,316.367z"/>
									</g>
								</g>
							</g>
							<g>
								<g>
									<g>
										<g>
											<g>
												<g>
													<g>
														<g>
															<g>
																<g>
																	<g>
																		<g>
																			<g>
																				<g>
																					<g>
																						<g>
																							<g>
																								<g>
																									<g>
																										<g>
																											<g>
																												<path style="fill:#263238;" d="M299.761,311.958c-0.006,0.308-0.272,0.557-0.594,0.556
																													c-0.322,0-0.578-0.249-0.572-0.557c0.006-0.308,0.272-0.557,0.594-0.556
																													C299.511,311.401,299.767,311.651,299.761,311.958z"/>
																											</g>
																										</g>
																									</g>
																								</g>
																							</g>
																						</g>
																					</g>
																				</g>
																			</g>
																		</g>
																	</g>
																</g>
															</g>
														</g>
													</g>
												</g>
											</g>
										</g>
										<g>
											<g>
												<g>
													<g>
														<g>
															<g>
																<g>
																	<g>
																		<g>
																			<g>
																				<g>
																					<g>
																						<g>
																							<g>
																								<g>
																									<g>
																										<g>
																											<g>
																												<g>
																													<path style="fill:#263238;" d="M300.715,310.509c-0.076,0.072-0.5-0.278-1.128-0.311
																														c-0.626-0.042-1.104,0.255-1.168,0.175c-0.032-0.036,0.05-0.169,0.258-0.303
																														c0.205-0.134,0.55-0.257,0.94-0.234c0.391,0.024,0.711,0.185,0.892,0.342
																														C300.695,310.336,300.753,310.477,300.715,310.509z"/>
																												</g>
																											</g>
																										</g>
																									</g>
																								</g>
																							</g>
																						</g>
																					</g>
																				</g>
																			</g>
																		</g>
																	</g>
																</g>
															</g>
														</g>
													</g>
												</g>
											</g>
										</g>
										<g>
											<g>
												<g>
													<g>
														<g>
															<g>
																<g>
																	<g>
																		<g>
																			<g>
																				<g>
																					<g>
																						<g>
																							<g>
																								<g>
																									<g>
																										<g>
																											<g>
																												<path style="fill:#263238;" d="M296.773,315.251c-0.001-0.036,0.393-0.081,1.029-0.128
																													c0.161-0.008,0.315-0.031,0.348-0.139c0.044-0.114-0.013-0.29-0.081-0.48
																													c-0.129-0.395-0.265-0.809-0.407-1.243c-0.562-1.769-0.96-3.22-0.889-3.242
																													c0.072-0.022,0.586,1.394,1.148,3.163c0.135,0.436,0.264,0.852,0.386,1.249
																													c0.051,0.185,0.143,0.397,0.049,0.632c-0.05,0.117-0.172,0.197-0.276,0.219
																													c-0.104,0.026-0.195,0.022-0.274,0.023C297.168,315.305,296.773,315.286,296.773,315.251z"/>
																											</g>
																										</g>
																									</g>
																								</g>
																							</g>
																						</g>
																					</g>
																				</g>
																			</g>
																		</g>
																	</g>
																</g>
															</g>
														</g>
													</g>
												</g>
											</g>
										</g>
										<g>
											<g>
												<g>
													<g>
														<g>
															<g>
																<g>
																	<g>
																		<g>
																			<g>
																				<g>
																					<g>
																						<g>
																							<g>
																								<g>
																									<g>
																										<g>
																											<path style="fill:#EB996E;" d="M296.799,322.682c0,0-3.069,0.029-5.999-1.954
																												c0,0,1.449,3.233,6.022,3.058L296.799,322.682z"/>
																										</g>
																									</g>
																								</g>
																							</g>
																						</g>
																					</g>
																				</g>
																			</g>
																		</g>
																	</g>
																</g>
															</g>
														</g>
													</g>
												</g>
											</g>
										</g>
										<g>
											<g>
												<g>
													<g>
														<g>
															<g>
																<g>
																	<g>
																		<g>
																			<g>
																				<g>
																					<g>
																						<g>
																							<g>
																								<g>
																									<g>
																										<g>
																											<g>
																												<path style="fill:#263238;" d="M294.903,315.583c0.102,0,0.066,0.679,0.623,1.193
																													c0.555,0.516,1.285,0.479,1.285,0.574c0.007,0.043-0.169,0.123-0.476,0.115
																													c-0.301-0.006-0.735-0.127-1.075-0.441c-0.34-0.315-0.471-0.718-0.479-0.998
																													C294.771,315.74,294.857,315.576,294.903,315.583z"/>
																											</g>
																										</g>
																									</g>
																								</g>
																							</g>
																						</g>
																					</g>
																				</g>
																			</g>
																		</g>
																	</g>
																</g>
															</g>
														</g>
													</g>
												</g>
											</g>
										</g>
										<g>
											<g>
												<g>
													<g>
														<g>
															<g>
																<g>
																	<g>
																		<g>
																			<g>
																				<g>
																					<g>
																						<g>
																							<g>
																								<g>
																									<g>
																										<g>
																											<g>
																												<g>
																													<g>
																														<path style="fill:#263238;" d="M300.591,308.149c-0.114,0.147-0.589,0.018-1.152,0.034
																															c-0.564-0.002-1.037,0.138-1.153-0.007c-0.051-0.07,0.018-0.216,0.221-0.359
																															c0.2-0.142,0.539-0.266,0.927-0.271c0.388-0.004,0.728,0.111,0.93,0.249
																															C300.569,307.934,300.641,308.078,300.591,308.149z"/>
																													</g>
																												</g>
																											</g>
																										</g>
																									</g>
																								</g>
																							</g>
																						</g>
																					</g>
																				</g>
																			</g>
																		</g>
																	</g>
																</g>
															</g>
														</g>
													</g>
												</g>
											</g>
										</g>
										<g>
											<g>
												<g>
													<g>
														<g>
															<g>
																<g>
																	<g>
																		<g>
																			<g>
																				<g>
																					<g>
																						<g>
																							<g>
																								<g>
																									<g>
																										<g>
																											<g>
																												<path style="fill:#263238;" d="M292.882,311.916c-0.016,0.308,0.231,0.575,0.553,0.598
																													c0.321,0.023,0.595-0.207,0.611-0.515c0.016-0.307-0.231-0.575-0.552-0.598
																													C293.173,311.379,292.899,311.609,292.882,311.916z"/>
																											</g>
																										</g>
																									</g>
																								</g>
																							</g>
																						</g>
																					</g>
																				</g>
																			</g>
																		</g>
																	</g>
																</g>
															</g>
														</g>
													</g>
												</g>
											</g>
										</g>
										<g>
											<g>
												<g>
													<g>
														<g>
															<g>
																<g>
																	<g>
																		<g>
																			<g>
																				<g>
																					<g>
																						<g>
																							<g>
																								<g>
																									<g>
																										<g>
																											<g>
																												<g>
																													<path style="fill:#263238;" d="M292.119,310.284c0.071,0.077,0.519-0.242,1.147-0.229
																														c0.628,0.003,1.083,0.334,1.152,0.258c0.034-0.033-0.038-0.172-0.235-0.321
																														c-0.195-0.149-0.53-0.296-0.921-0.301c-0.391-0.004-0.723,0.134-0.915,0.277
																														C292.152,310.113,292.084,310.25,292.119,310.284z"/>
																												</g>
																											</g>
																										</g>
																									</g>
																								</g>
																							</g>
																						</g>
																					</g>
																				</g>
																			</g>
																		</g>
																	</g>
																</g>
															</g>
														</g>
													</g>
												</g>
											</g>
										</g>
										<g>
											<g>
												<g>
													<g>
														<g>
															<g>
																<g>
																	<g>
																		<g>
																			<g>
																				<g>
																					<g>
																						<g>
																							<g>
																								<g>
																									<g>
																										<g>
																											<g>
																												<g>
																													<g>
																														<path style="fill:#263238;" d="M291.758,308.939c0.121,0.144,0.608,0.005,1.191,0.008
																															c0.583-0.015,1.074,0.114,1.191-0.033c0.051-0.072-0.024-0.215-0.238-0.354
																															c-0.21-0.138-0.564-0.254-0.964-0.25c-0.401,0.004-0.75,0.127-0.955,0.27
																															C291.775,308.723,291.705,308.868,291.758,308.939z"/>
																													</g>
																												</g>
																											</g>
																										</g>
																									</g>
																								</g>
																							</g>
																						</g>
																					</g>
																				</g>
																			</g>
																		</g>
																	</g>
																</g>
															</g>
														</g>
													</g>
												</g>
											</g>
										</g>
									</g>
								</g>
							</g>
							<g>
								<g>
									<g>
										<g>
											<g>
												<g>
													<g>
														<g>
															<g>
																<g>
																	<g>
																		<g>
																			<g>
																				<g>
																					<g>
																						<g>
																							<g>
																								<g>
																									<path style="fill:#FFBE9D;" d="M288.115,313.252c0.018-0.338-0.33-1.156-0.661-1.226
																										c-0.885-0.188-2.498-0.204-2.637,2.057c-0.191,3.091,2.959,2.645,2.97,2.556
																										C287.795,316.57,288.054,314.418,288.115,313.252z"/>
																								</g>
																							</g>
																						</g>
																					</g>
																				</g>
																			</g>
																		</g>
																	</g>
																</g>
															</g>
														</g>
													</g>
												</g>
											</g>
										</g>
									</g>
								</g>
								<g>
									<g>
										<g>
											<g>
												<g>
													<g>
														<g>
															<g>
																<g>
																	<g>
																		<g>
																			<g>
																				<g>
																					<g>
																						<g>
																							<g>
																								<g>
																									<g>
																										<path style="fill:#EB996E;" d="M287.001,315.458c-0.013-0.011-0.056,0.034-0.15,0.071
																											c-0.092,0.035-0.246,0.054-0.404-0.016c-0.32-0.14-0.564-0.675-0.544-1.234
																											c0.009-0.282,0.085-0.546,0.199-0.762c0.109-0.22,0.265-0.369,0.432-0.388
																											c0.166-0.028,0.277,0.078,0.309,0.167c0.036,0.089,0.013,0.15,0.029,0.156
																											c0.008,0.008,0.07-0.048,0.053-0.177c-0.009-0.062-0.041-0.138-0.11-0.201
																											c-0.071-0.065-0.178-0.102-0.294-0.097c-0.24,0.002-0.468,0.208-0.593,0.445
																											c-0.138,0.237-0.23,0.534-0.24,0.85c-0.019,0.624,0.265,1.227,0.705,1.383
																											c0.214,0.07,0.4,0.016,0.499-0.052C286.991,315.532,287.012,315.464,287.001,315.458z"/>
																									</g>
																								</g>
																							</g>
																						</g>
																					</g>
																				</g>
																			</g>
																		</g>
																	</g>
																</g>
															</g>
														</g>
													</g>
												</g>
											</g>
										</g>
									</g>
								</g>
							</g>
						</g>
					</g>
					<g>
						<g>
							<g>
								<g>
									<path style="fill:#263238;" d="M287.327,312.035l0.787,0.815c3.399-3.247,10.042-11.376,9.671-10.891
										c0,0-2.328-0.956-4.856-0.526c-2.527,0.43-7.322,1.692-7.248,4.667C285.755,309.073,287.327,312.035,287.327,312.035z"/>
								</g>
							</g>
						</g>
					</g>
				</g>
				<g>
					<g>
						<g>
							<g>
								<path style="fill:#455A64;" d="M282.826,311.352c-0.005-0.001,0.011-0.063,0.047-0.179c0.037-0.116,0.104-0.283,0.211-0.487
									c0.216-0.407,0.628-0.958,1.295-1.454c0.657-0.509,1.569-0.925,2.607-1.251c1.036-0.337,2.205-0.598,3.351-1.09
									c1.154-0.473,2.183-1.083,3.061-1.711c0.875-0.635,1.597-1.293,2.16-1.885c0.564-0.593,0.973-1.114,1.249-1.479
									c0.127-0.174,0.23-0.315,0.311-0.426c0.072-0.097,0.112-0.147,0.117-0.144c0.005,0.003-0.026,0.058-0.09,0.161
									c-0.065,0.102-0.156,0.256-0.287,0.445c-0.262,0.378-0.66,0.913-1.218,1.52c-0.557,0.606-1.278,1.279-2.156,1.926
									c-0.881,0.641-1.919,1.261-3.086,1.739c-1.162,0.497-2.338,0.756-3.368,1.083c-1.034,0.317-1.931,0.714-2.584,1.202
									c-0.663,0.475-1.079,1.003-1.308,1.394C282.911,311.111,282.842,311.358,282.826,311.352z"/>
							</g>
						</g>
					</g>
				</g>
				<g>
					<g>
						<g>
							<g>
								<path style="fill:#455A64;" d="M283.727,311.839c0,0-0.031-0.253,0.12-0.676c0.144-0.419,0.511-0.989,1.164-1.456
									c0.647-0.482,1.57-0.78,2.585-1.011c1.019-0.224,2.125-0.511,3.212-1.017c1.086-0.502,2.06-1.11,2.864-1.764
									c0.809-0.65,1.461-1.324,1.963-1.926c0.509-0.598,0.85-1.137,1.095-1.501c0.107-0.176,0.193-0.319,0.263-0.433
									c0.062-0.098,0.096-0.149,0.101-0.146c0.005,0.003-0.021,0.058-0.073,0.161c-0.063,0.118-0.141,0.267-0.238,0.449
									c-0.229,0.376-0.559,0.928-1.061,1.541c-0.496,0.616-1.146,1.305-1.958,1.968c-0.808,0.668-1.791,1.287-2.89,1.795
									c-1.098,0.512-2.229,0.8-3.245,1.015c-1.013,0.223-1.918,0.504-2.553,0.96c-0.644,0.443-1.013,0.984-1.171,1.386
									C283.74,311.59,283.749,311.842,283.727,311.839z"/>
							</g>
						</g>
					</g>
				</g>
			</g>
			<g>
				<g>
					<g>
						<path style="fill:#263238;" d="M281.916,339.772c-0.057,0-0.103-1.324-0.103-2.956c0-1.633,0.046-2.956,0.103-2.956
							c0.057,0,0.104,1.323,0.104,2.956C282.019,338.448,281.973,339.772,281.916,339.772z"/>
					</g>
				</g>
			</g>
			<g>
				<g>
					<g>
						<path style="fill:#263238;" d="M303.141,339.36c-0.031-0.003-0.002-0.405,0.035-1.05c0.03-0.645,0.071-1.54-0.087-2.506
							c-0.163-0.966-0.489-1.803-0.72-2.408c-0.239-0.604-0.39-0.977-0.362-0.99c0.024-0.01,0.223,0.342,0.497,0.935
							c0.267,0.594,0.621,1.438,0.789,2.43c0.162,0.994,0.095,1.905,0.028,2.55C303.247,338.968,303.167,339.363,303.141,339.36z"/>
					</g>
				</g>
			</g>
		</g>
		<g>
			<path style="fill:#EBEBEB;" d="M411.076,332.877h-76.443c-3.796,0-6.873-3.077-6.873-6.873v-16.841l-8.427-7.481h8.427h83.316
				c3.796,0,6.873,3.077,6.873,6.873v17.449C417.949,329.799,414.871,332.877,411.076,332.877z"/>
		</g>
		<g>
			<g>
				<path style="fill:#FFFFFF;" d="M410.098,310.874c0,0.144-16.69,0.26-37.273,0.26c-20.59,0-37.276-0.117-37.276-0.26
					s16.686-0.26,37.276-0.26C393.408,310.613,410.098,310.73,410.098,310.874z"/>
			</g>
		</g>
		<g>
			<g>
				<path style="fill:#FFFFFF;" d="M410.098,316.35c0,0.144-16.69,0.26-37.273,0.26c-20.59,0-37.276-0.117-37.276-0.26
					s16.686-0.26,37.276-0.26C393.408,316.09,410.098,316.206,410.098,316.35z"/>
			</g>
		</g>
		<g>
			<g>
				<path style="fill:#FFFFFF;" d="M410.098,321.826c0,0.144-16.69,0.26-37.273,0.26c-20.59,0-37.276-0.117-37.276-0.26
					c0-0.144,16.686-0.26,37.276-0.26C393.408,321.566,410.098,321.683,410.098,321.826z"/>
			</g>
		</g>
		<g>
			<g>
				<path style="fill:#FFFFFF;" d="M410.098,187.736c0,0.144-16.69,0.26-37.273,0.26c-20.59,0-37.276-0.117-37.276-0.26
					s16.686-0.26,37.276-0.26C393.408,187.476,410.098,187.593,410.098,187.736z"/>
			</g>
		</g>
		<g>
			<g>
				<path style="fill:#FFFFFF;" d="M410.098,193.213c0,0.144-16.69,0.26-37.273,0.26c-20.59,0-37.276-0.117-37.276-0.26
					s16.686-0.26,37.276-0.26C393.408,192.952,410.098,193.069,410.098,193.213z"/>
			</g>
		</g>
		<g>
			<g>
				<path style="fill:#FFFFFF;" d="M410.098,199.794c0,0.144-16.69,0.26-37.273,0.26c-20.59,0-37.276-0.117-37.276-0.26
					s16.686-0.26,37.276-0.26C393.408,199.533,410.098,199.65,410.098,199.794z"/>
			</g>
		</g>
		<g>
			<path style="fill:#263238;" d="M335.951,104.63c0-2.183,1.676-3.745,3.932-3.745c1.252,0,2.297,0.455,2.98,1.283l-1.076,0.993
				c-0.486-0.559-1.097-0.849-1.82-0.849c-1.355,0-2.317,0.952-2.317,2.317c0,1.366,0.962,2.317,2.317,2.317
				c0.724,0,1.334-0.29,1.82-0.858l1.076,0.993c-0.683,0.838-1.728,1.293-2.99,1.293
				C337.627,108.375,335.951,106.813,335.951,104.63z"/>
			<path style="fill:#263238;" d="M349.562,105.065v3.187h-1.613v-2.938c0-0.9-0.414-1.314-1.128-1.314
				c-0.776,0-1.335,0.476-1.335,1.5v2.752h-1.613v-7.676h1.613v2.69c0.435-0.435,1.056-0.662,1.77-0.662
				C348.569,102.603,349.562,103.368,349.562,105.065z"/>
			<path style="fill:#263238;" d="M355.942,105.075v3.176h-1.51v-0.693c-0.301,0.507-0.88,0.776-1.697,0.776
				c-1.303,0-2.079-0.725-2.079-1.687c0-0.983,0.693-1.666,2.39-1.666h1.283c0-0.693-0.414-1.097-1.283-1.097
				c-0.59,0-1.2,0.196-1.604,0.517l-0.579-1.128c0.61-0.435,1.511-0.672,2.4-0.672C354.96,102.603,355.942,103.389,355.942,105.075z
				 M354.329,106.493v-0.569h-1.108c-0.755,0-0.993,0.279-0.993,0.652c0,0.403,0.342,0.672,0.91,0.672
				C353.676,107.248,354.142,106.999,354.329,106.493z"/>
			<path style="fill:#263238;" d="M360.989,107.982c-0.331,0.238-0.817,0.352-1.314,0.352c-1.314,0-2.079-0.673-2.079-1.997v-2.286
				h-0.858v-1.242h0.858v-1.355h1.614v1.355h1.386v1.242h-1.386v2.266c0,0.476,0.258,0.734,0.692,0.734
				c0.238,0,0.477-0.072,0.652-0.207L360.989,107.982z"/>
		</g>
		<g>
			<g>
				<path style="fill:#263238;" d="M389.527,115.785c0,0.144-17.043,0.26-38.062,0.26c-21.026,0-38.066-0.117-38.066-0.26
					c0-0.144,17.039-0.26,38.066-0.26C372.484,115.525,389.527,115.641,389.527,115.785z"/>
			</g>
		</g>
		<g>
			<circle style="fill:#263238;" cx="423.257" cy="102.857" r="1.772"/>
		</g>
		<g>
			<path style="fill:#263238;" d="M425.029,108.023c0,0.979-0.793,1.772-1.772,1.772c-0.979,0-1.772-0.793-1.772-1.772
				c0-0.979,0.794-1.772,1.772-1.772C424.236,106.25,425.029,107.044,425.029,108.023z"/>
		</g>
		<g>
			<path style="fill:#263238;" d="M425.029,113.188c0,0.979-0.793,1.772-1.772,1.772c-0.979,0-1.772-0.794-1.772-1.772
				c0-0.979,0.794-1.772,1.772-1.772C424.236,111.416,425.029,112.21,425.029,113.188z"/>
		</g>
		<g>
			<path style="fill:#263238;" d="M279.315,108.857c-0.104,0-0.207-0.031-0.296-0.097l-4.693-3.442
				c-0.129-0.095-0.205-0.246-0.204-0.406c0.001-0.16,0.078-0.31,0.208-0.403l4.693-3.377c0.222-0.161,0.536-0.111,0.698,0.114
				c0.161,0.224,0.11,0.537-0.114,0.698l-4.135,2.975l4.139,3.035c0.223,0.164,0.271,0.477,0.107,0.699
				C279.621,108.786,279.468,108.857,279.315,108.857z"/>
		</g>
		<g>
			<g>
				<ellipse style="fill:#E0E0E0;" cx="401.709" cy="254.625" rx="22.43" ry="22.383"/>
			</g>
		</g>
		<g>
			<g>
				<path style="fill:#263238;" d="M407.849,267.849h-11.795c-0.84,0-1.522-0.681-1.522-1.522l0,0c0-0.841,0.681-1.522,1.522-1.522
					h11.795c0.841,0,1.522,0.681,1.522,1.522l0,0C409.371,267.167,408.69,267.849,407.849,267.849z"/>
			</g>
			<g>
				<rect x="401.583" y="240.069" style="fill:#263238;" width="1.036" height="5.24"/>
			</g>
			<g>
				<circle style="fill:#FF725E;" cx="386.807" cy="257.977" r="3.045"/>
			</g>
			<g>
				<circle style="fill:#FF725E;" cx="417.545" cy="257.777" r="3.045"/>
			</g>
			<g>
				<path style="fill:#FF725E;" d="M402.554,244.212c0,0,12.38-0.149,14.34,10.574c1.96,10.723-8.51,10.923-11.521,11.126
					c-1.365,0.092-4.287,0.102-6.864,0.057c-5.707-0.099-9.739-1.204-11.111-6.498c-0.16-0.617-0.268-1.251-0.308-1.896
					C386.725,251.771,390.654,243.927,402.554,244.212z"/>
			</g>
			<g>
				<path style="fill:#263238;" d="M393.573,260.543l17.986,0.281c1.885,0.029,3.437-1.475,3.467-3.36l0,0
					c0.029-1.885-1.475-3.437-3.36-3.467l-17.986-0.281c-1.885-0.029-3.437,1.475-3.467,3.36l0,0
					C390.183,258.962,391.688,260.514,393.573,260.543z"/>
			</g>
			<g>
				<path style="fill:#FFFFFF;" d="M407.826,257.092c0.116,0.594,0.692,0.981,1.286,0.865c0.594-0.116,0.981-0.692,0.865-1.286
					c-0.116-0.594-0.692-0.981-1.286-0.864C408.097,255.923,407.71,256.498,407.826,257.092z"/>
			</g>
			<g>
				<path style="fill:#FFFFFF;" d="M395.261,256.891c0.116,0.594,0.692,0.981,1.286,0.865c0.594-0.116,0.981-0.692,0.865-1.286
					c-0.116-0.594-0.692-0.981-1.286-0.865C395.532,255.722,395.145,256.298,395.261,256.891z"/>
			</g>
			<g>
				<path style="fill:#FF725E;" d="M403.809,239.964c0,0.943-0.765,1.708-1.708,1.708c-0.943,0-1.708-0.765-1.708-1.708
					c0-0.943,0.765-1.708,1.708-1.708C403.044,238.257,403.809,239.021,403.809,239.964z"/>
			</g>
			<g>
				<g>
					<path style="fill:#FFFFFF;" d="M404.677,256.587c0.03-0.005,0.078,0.085,0.109,0.262c0.032,0.177,0.027,0.446-0.066,0.76
						c-0.091,0.314-0.285,0.668-0.601,0.975c-0.312,0.306-0.764,0.558-1.289,0.611c-0.526,0.043-1.016-0.123-1.378-0.368
						c-0.366-0.245-0.621-0.557-0.767-0.85c-0.148-0.292-0.202-0.556-0.203-0.736c-0.002-0.18,0.03-0.277,0.06-0.278
						c0.078-0.006,0.103,0.379,0.43,0.841c0.159,0.23,0.399,0.469,0.712,0.652c0.311,0.184,0.703,0.298,1.104,0.266
						c0.4-0.041,0.764-0.224,1.037-0.461c0.275-0.237,0.467-0.516,0.582-0.771C404.644,256.978,404.599,256.595,404.677,256.587z"/>
				</g>
			</g>
			<g>
				<g>
					<path style="fill:#263238;" d="M416.865,254.436c0.006-0.002,0.041,0.092,0.098,0.265c0.03,0.086,0.063,0.192,0.093,0.318
						c0.032,0.125,0.073,0.267,0.102,0.427c0.069,0.318,0.124,0.702,0.158,1.132c0.027,0.43,0.03,0.904-0.012,1.4
						c-0.046,0.495-0.132,0.962-0.235,1.38c-0.108,0.417-0.23,0.786-0.354,1.086c-0.056,0.153-0.122,0.285-0.175,0.402
						c-0.052,0.118-0.104,0.217-0.148,0.296c-0.086,0.16-0.137,0.247-0.143,0.243c-0.006-0.003,0.034-0.096,0.11-0.26
						c0.039-0.082,0.086-0.182,0.133-0.301c0.048-0.119,0.109-0.252,0.161-0.405c0.115-0.302,0.229-0.669,0.332-1.083
						c0.097-0.415,0.179-0.878,0.225-1.368c0.041-0.49,0.042-0.96,0.019-1.386c-0.028-0.425-0.076-0.807-0.136-1.124
						c-0.024-0.16-0.061-0.301-0.087-0.427c-0.025-0.126-0.053-0.233-0.078-0.32C416.882,254.536,416.859,254.438,416.865,254.436z"
						/>
				</g>
			</g>
			<g>
				<g>
					<path style="fill:#263238;" d="M387.536,254.502c-0.006-0.002-0.041,0.092-0.098,0.265c-0.03,0.086-0.063,0.192-0.094,0.318
						c-0.032,0.125-0.073,0.267-0.102,0.427c-0.069,0.318-0.124,0.702-0.158,1.132c-0.027,0.43-0.03,0.904,0.012,1.4
						c0.046,0.495,0.132,0.962,0.235,1.38c0.108,0.417,0.23,0.786,0.354,1.086c0.056,0.153,0.122,0.285,0.175,0.402
						c0.052,0.118,0.104,0.217,0.148,0.296c0.086,0.16,0.137,0.246,0.143,0.243c0.006-0.003-0.034-0.096-0.11-0.26
						c-0.039-0.082-0.085-0.182-0.133-0.301c-0.048-0.119-0.109-0.252-0.161-0.405c-0.115-0.301-0.229-0.669-0.332-1.083
						c-0.097-0.415-0.179-0.878-0.225-1.368c-0.041-0.49-0.042-0.96-0.019-1.386c0.028-0.426,0.076-0.807,0.136-1.125
						c0.024-0.16,0.061-0.301,0.087-0.427c0.025-0.126,0.053-0.233,0.078-0.32C387.52,254.602,387.542,254.504,387.536,254.502z"/>
				</g>
			</g>
			<g>
				<path style="fill:#FF725E;" d="M390.212,273.844c0,0,3.674-3.594,11.37-3.594s11.628,3.594,11.628,3.594
					S402.49,281.088,390.212,273.844z"/>
			</g>
		</g>
		<g>
			<path style="fill:#EBEBEB;" d="M278.969,277.445h76.443c3.796,0,6.873-3.077,6.873-6.873v-22.18l8.427-7.481h-8.427h-83.316
				c-3.796,0-6.873,3.077-6.873,6.873v22.788C272.095,274.367,275.172,277.445,278.969,277.445z"/>
		</g>
		<g>
			<g>
				<path style="fill:#FFFFFF;" d="M352.022,251.754c0,0.144-15.744,0.26-35.162,0.26c-19.424,0-35.165-0.117-35.165-0.26
					c0-0.144,15.741-0.26,35.165-0.26C336.278,251.494,352.022,251.61,352.022,251.754z"/>
			</g>
		</g>
		<g>
			<g>
				<path style="fill:#FFFFFF;" d="M352.022,257.692c0,0.144-15.744,0.26-35.162,0.26c-19.424,0-35.165-0.116-35.165-0.26
					c0-0.144,15.741-0.26,35.165-0.26C336.278,257.432,352.022,257.548,352.022,257.692z"/>
			</g>
		</g>
		<g>
			<g>
				<path style="fill:#FFFFFF;" d="M352.022,263.63c0,0.144-15.744,0.26-35.162,0.26c-19.424,0-35.165-0.117-35.165-0.26
					c0-0.144,15.741-0.26,35.165-0.26C336.278,263.37,352.022,263.486,352.022,263.63z"/>
			</g>
		</g>
		<g>
			<g>
				<path style="fill:#FFFFFF;" d="M352.022,269.568c0,0.144-15.744,0.26-35.162,0.26c-19.424,0-35.165-0.116-35.165-0.26
					c0-0.144,15.741-0.26,35.165-0.26C336.278,269.308,352.022,269.424,352.022,269.568z"/>
			</g>
		</g>
		<g>
			<g>
				<ellipse style="fill:#E0E0E0;" cx="401.709" cy="378.903" rx="22.43" ry="22.383"/>
			</g>
		</g>
		<g>
			<g>
				<path style="fill:#263238;" d="M407.849,392.127h-11.795c-0.84,0-1.522-0.681-1.522-1.522l0,0c0-0.841,0.681-1.522,1.522-1.522
					h11.795c0.841,0,1.522,0.681,1.522,1.522l0,0C409.371,391.445,408.69,392.127,407.849,392.127z"/>
			</g>
			<g>
				<rect x="401.583" y="364.347" style="fill:#263238;" width="1.036" height="5.24"/>
			</g>
			<g>
				<circle style="fill:#FF725E;" cx="386.807" cy="382.255" r="3.045"/>
			</g>
			<g>
				<circle style="fill:#FF725E;" cx="417.545" cy="382.055" r="3.045"/>
			</g>
			<g>
				<path style="fill:#FF725E;" d="M402.554,368.49c0,0,12.38-0.149,14.34,10.574c1.96,10.723-8.51,10.923-11.521,11.126
					c-1.365,0.092-4.287,0.102-6.864,0.057c-5.707-0.099-9.739-1.204-11.111-6.498c-0.16-0.617-0.268-1.251-0.308-1.896
					C386.725,376.049,390.654,368.205,402.554,368.49z"/>
			</g>
			<g>
				<path style="fill:#263238;" d="M393.573,384.822l17.986,0.281c1.885,0.03,3.437-1.475,3.467-3.36l0,0
					c0.029-1.885-1.475-3.437-3.36-3.467l-17.986-0.281c-1.885-0.03-3.437,1.475-3.467,3.36l0,0
					C390.183,383.24,391.688,384.792,393.573,384.822z"/>
			</g>
			<g>
				<path style="fill:#FFFFFF;" d="M407.826,381.37c0.116,0.594,0.692,0.981,1.286,0.865c0.594-0.116,0.981-0.692,0.865-1.286
					c-0.116-0.594-0.692-0.981-1.286-0.865C408.097,380.201,407.71,380.776,407.826,381.37z"/>
			</g>
			<g>
				<path style="fill:#FFFFFF;" d="M395.261,381.169c0.116,0.594,0.692,0.981,1.286,0.865c0.594-0.116,0.981-0.692,0.865-1.286
					c-0.116-0.594-0.692-0.981-1.286-0.865C395.532,380,395.145,380.576,395.261,381.169z"/>
			</g>
			<g>
				<path style="fill:#FF725E;" d="M403.809,364.242c0,0.943-0.765,1.708-1.708,1.708c-0.943,0-1.708-0.765-1.708-1.708
					s0.765-1.708,1.708-1.708C403.044,362.535,403.809,363.299,403.809,364.242z"/>
			</g>
			<g>
				<g>
					<path style="fill:#FFFFFF;" d="M404.677,380.865c0.03-0.005,0.078,0.084,0.109,0.262c0.032,0.177,0.027,0.446-0.066,0.76
						c-0.091,0.314-0.285,0.667-0.601,0.975c-0.312,0.306-0.764,0.558-1.289,0.611c-0.526,0.043-1.016-0.123-1.378-0.368
						c-0.366-0.245-0.621-0.557-0.767-0.85c-0.148-0.292-0.202-0.556-0.203-0.736c-0.002-0.18,0.03-0.277,0.06-0.278
						c0.078-0.006,0.103,0.379,0.43,0.841c0.159,0.23,0.399,0.469,0.712,0.652c0.311,0.184,0.703,0.298,1.104,0.266
						c0.4-0.041,0.764-0.224,1.037-0.461c0.275-0.237,0.467-0.516,0.582-0.771C404.644,381.256,404.599,380.873,404.677,380.865z"/>
				</g>
			</g>
			<g>
				<g>
					<path style="fill:#263238;" d="M416.865,378.714c0.006-0.002,0.041,0.092,0.098,0.265c0.03,0.086,0.063,0.192,0.093,0.318
						c0.032,0.125,0.073,0.267,0.102,0.427c0.069,0.318,0.124,0.702,0.158,1.132c0.027,0.43,0.03,0.904-0.012,1.4
						c-0.046,0.495-0.132,0.962-0.235,1.38c-0.108,0.417-0.23,0.786-0.354,1.086c-0.056,0.153-0.122,0.285-0.175,0.402
						c-0.052,0.118-0.104,0.217-0.148,0.296c-0.086,0.16-0.137,0.246-0.143,0.243c-0.006-0.003,0.034-0.096,0.11-0.26
						c0.039-0.082,0.086-0.182,0.133-0.302c0.048-0.119,0.109-0.252,0.161-0.405c0.115-0.301,0.229-0.669,0.332-1.083
						c0.097-0.415,0.179-0.878,0.225-1.368c0.041-0.49,0.042-0.96,0.019-1.386c-0.028-0.426-0.076-0.807-0.136-1.125
						c-0.024-0.16-0.061-0.301-0.087-0.427c-0.025-0.126-0.053-0.233-0.078-0.32C416.882,378.814,416.859,378.716,416.865,378.714z"
						/>
				</g>
			</g>
			<g>
				<g>
					<path style="fill:#263238;" d="M387.536,378.78c-0.006-0.002-0.041,0.092-0.098,0.265c-0.03,0.086-0.063,0.192-0.094,0.318
						c-0.032,0.125-0.073,0.267-0.102,0.427c-0.069,0.318-0.124,0.702-0.158,1.132c-0.027,0.43-0.03,0.904,0.012,1.4
						c0.046,0.495,0.132,0.962,0.235,1.38c0.108,0.417,0.23,0.786,0.354,1.086c0.056,0.153,0.122,0.285,0.175,0.402
						c0.052,0.118,0.104,0.217,0.148,0.296c0.086,0.16,0.137,0.247,0.143,0.243c0.006-0.003-0.034-0.096-0.11-0.26
						c-0.039-0.082-0.085-0.182-0.133-0.301c-0.048-0.119-0.109-0.252-0.161-0.405c-0.115-0.302-0.229-0.669-0.332-1.083
						c-0.097-0.415-0.179-0.878-0.225-1.368c-0.041-0.49-0.042-0.96-0.019-1.386c0.028-0.425,0.076-0.807,0.136-1.124
						c0.024-0.16,0.061-0.301,0.087-0.427c0.025-0.126,0.053-0.233,0.078-0.32C387.52,378.88,387.542,378.782,387.536,378.78z"/>
				</g>
			</g>
			<g>
				<path style="fill:#FF725E;" d="M390.212,398.122c0,0,3.674-3.594,11.37-3.594s11.628,3.594,11.628,3.594
					S402.49,405.366,390.212,398.122z"/>
			</g>
		</g>
		<g>
			<path style="fill:#EBEBEB;" d="M278.969,401.723h76.443c3.796,0,6.873-3.077,6.873-6.873v-22.18l8.427-7.481h-8.427h-83.316
				c-3.796,0-6.873,3.077-6.873,6.873v22.788C272.095,398.646,275.172,401.723,278.969,401.723z"/>
		</g>
		<g>
			<path style="fill:#EBEBEB;" d="M278.969,436.406h76.443c3.796,0,6.873-3.077,6.873-6.873v-7.35l8.427-7.481h-8.427h-83.316
				c-3.796,0-6.873,3.077-6.873,6.873v7.958C272.095,433.328,275.172,436.406,278.969,436.406z"/>
		</g>
		<g>
			<g>
				<path style="fill:#FFFFFF;" d="M352.022,376.032c0,0.144-15.744,0.26-35.162,0.26c-19.424,0-35.165-0.117-35.165-0.26
					s15.741-0.26,35.165-0.26C336.278,375.772,352.022,375.888,352.022,376.032z"/>
			</g>
		</g>
		<g>
			<g>
				<path style="fill:#FFFFFF;" d="M352.022,381.97c0,0.144-15.744,0.26-35.162,0.26c-19.424,0-35.165-0.117-35.165-0.26
					c0-0.144,15.741-0.26,35.165-0.26C336.278,381.71,352.022,381.826,352.022,381.97z"/>
			</g>
		</g>
		<g>
			<g>
				<path style="fill:#FFFFFF;" d="M352.022,387.908c0,0.144-15.744,0.26-35.162,0.26c-19.424,0-35.165-0.117-35.165-0.26
					s15.741-0.26,35.165-0.26C336.278,387.648,352.022,387.764,352.022,387.908z"/>
			</g>
		</g>
		<g>
			<g>
				<path style="fill:#FFFFFF;" d="M352.022,393.846c0,0.144-15.744,0.26-35.162,0.26c-19.424,0-35.165-0.117-35.165-0.26
					s15.741-0.26,35.165-0.26C336.278,393.586,352.022,393.702,352.022,393.846z"/>
			</g>
		</g>
		<g>
			<g>
				<path style="fill:#FFFFFF;" d="M352.24,425.868c0,0.144-15.579,0.26-34.792,0.26c-19.22,0-34.795-0.117-34.795-0.26
					s15.575-0.26,34.795-0.26C336.661,425.608,352.24,425.725,352.24,425.868z"/>
			</g>
		</g>
	</g>
</g>
<g id="Plant">
	<g>
		<g>
			<g>
				<g>
					<path style="fill:#455A64;" d="M96.44,411.392c2.708,0.552,5.017,2.46,6.471,4.81c1.453,2.351,2.123,5.113,2.387,7.865
						c0.51,5.323-1.335,11.195-3.638,16.022c-5.185-2.895-7.601-9.347-8.621-12.697C91.426,422.096,91.728,411.548,96.44,411.392"/>
				</g>
			</g>
		</g>
		<g>
			<g>
				<g>
					<path style="fill:#455A64;" d="M108.562,447.593c-1.322-2.79-0.781-6.272,1.05-8.758c1.831-2.486,4.802-4.003,7.863-4.409
						c1.415-0.188,3.006-0.1,4.046,0.878c0.972,0.914,1.205,2.428,0.844,3.713c-0.36,1.285-1.224,2.371-2.184,3.299
						C116.891,445.499,113.123,447.974,108.562,447.593"/>
				</g>
			</g>
		</g>
		<g>
			<g>
				<g>
					<g>
						<path style="fill:#263238;" d="M106.317,464.72c-0.028,0-0.048-0.392-0.07-1.1c-0.021-0.78-0.048-1.788-0.081-2.999
							c-0.026-2.515-0.135-6.102,1.03-9.853c1.142-3.737,3.211-6.749,5.132-8.433c0.95-0.855,1.819-1.428,2.447-1.764
							c0.307-0.181,0.567-0.28,0.735-0.362c0.171-0.076,0.264-0.109,0.27-0.097c0.049,0.078-1.44,0.684-3.265,2.424
							c-1.839,1.704-3.825,4.672-4.949,8.346c-1.144,3.674-1.084,7.221-1.126,9.737c-0.009,1.266-0.017,2.292-0.042,3
							C106.374,464.329,106.342,464.721,106.317,464.72z"/>
					</g>
				</g>
			</g>
		</g>
		<g>
			<g>
				<g>
					<g>
						<path style="fill:#263238;" d="M96.92,419.445c0.013-0.003,0.065,0.154,0.152,0.455c0.094,0.342,0.214,0.78,0.363,1.323
							c0.308,1.151,0.733,2.821,1.24,4.89c1.015,4.137,2.338,9.872,3.656,16.238c1.316,6.368,2.377,12.158,3.086,16.358
							c0.355,2.1,0.628,3.802,0.802,4.98c0.079,0.557,0.142,1.007,0.192,1.358c0.04,0.311,0.054,0.476,0.041,0.478
							c-0.013,0.002-0.053-0.158-0.118-0.465c-0.068-0.348-0.155-0.794-0.264-1.346c-0.227-1.218-0.54-2.9-0.923-4.958
							c-0.778-4.186-1.881-9.964-3.196-16.328c-1.317-6.361-2.596-12.102-3.543-16.253c-0.465-2.041-0.845-3.709-1.12-4.917
							c-0.12-0.55-0.217-0.994-0.292-1.34C96.933,419.611,96.907,419.448,96.92,419.445z"/>
					</g>
				</g>
			</g>
		</g>
		<g>
			<g>
				<g>
					<path style="fill:#455A64;" d="M101.656,452.359c-2.326-6.08-7.767-10.87-14.092-12.408c-1.611-0.391-3.618-0.445-4.59,0.897
						c-0.974,1.345-0.291,3.244,0.618,4.633c3.783,5.781,11.309,8.835,18.051,7.327"/>
				</g>
			</g>
		</g>
		<g>
			<g>
				<g>
					<g>
						<path style="fill:#263238;" d="M89.316,444.732c0.006-0.026,0.366,0.049,1.015,0.209c0.325,0.077,0.722,0.174,1.168,0.338
							c0.445,0.163,0.971,0.302,1.513,0.556c0.549,0.237,1.158,0.483,1.772,0.828c0.634,0.309,1.271,0.709,1.94,1.135
							c1.313,0.883,2.68,1.981,3.931,3.319c1.239,1.35,2.235,2.793,3.01,4.175c0.366,0.703,0.717,1.37,0.967,2.03
							c0.29,0.643,0.481,1.271,0.663,1.841c0.203,0.564,0.288,1.102,0.406,1.561c0.119,0.46,0.174,0.865,0.216,1.197
							c0.09,0.662,0.127,1.027,0.1,1.031c-0.086,0.015-0.242-1.459-0.983-3.704c-0.197-0.557-0.399-1.171-0.698-1.799
							c-0.258-0.645-0.615-1.295-0.983-1.982c-0.779-1.349-1.765-2.759-2.982-4.085c-1.23-1.314-2.565-2.4-3.846-3.286
							c-0.653-0.427-1.274-0.831-1.893-1.148c-0.599-0.353-1.193-0.609-1.729-0.859C90.738,445.136,89.293,444.814,89.316,444.732z"
							/>
					</g>
				</g>
			</g>
		</g>
	</g>
</g>
<g id="Speech_Bubble">
	<g>
		<g>
			<g>
				<g>
					<g>
						<g>
							<g>
								<g>
									<g>
										<g>
											<g>
												<g>
													<path style="fill:#FAFAFA;" d="M121.097,151.697l-3.701-11.545c3.762-6.107,5.937-13.296,5.937-20.996
														c0-22.142-17.949-40.091-40.091-40.091c-22.142,0-40.09,17.949-40.09,40.091c0,22.141,17.949,40.09,40.09,40.09
														c9.245,0,17.753-3.138,24.535-8.395l-0.014,0.018L121.097,151.697z"/>
												</g>
												<g>
													<g>
														<path style="fill:#263238;" d="M121.096,151.697c0,0-0.274-0.006-0.839-0.034c-0.586-0.031-1.428-0.074-2.533-0.132
															c-2.275-0.125-5.618-0.309-9.968-0.549c-0.062-0.003-0.11-0.056-0.106-0.118c0.001-0.023,0.01-0.046,0.024-0.063
															l0.014-0.018l0.159,0.158c-4.093,3.187-10.162,6.635-18.099,7.949c-1.973,0.333-4.051,0.52-6.205,0.536
															c-2.149-0.089-4.388-0.096-6.651-0.53c-4.534-0.709-9.245-2.248-13.693-4.799c-4.445-2.541-8.617-6.089-12.004-10.531
															c-3.388-4.432-5.978-9.764-7.298-15.599c-1.35-5.825-1.332-12.149,0.16-18.273c0.196-0.763,0.393-1.529,0.59-2.296
															c0.226-0.759,0.532-1.495,0.795-2.247c0.297-0.738,0.496-1.521,0.877-2.229c0.347-0.722,0.696-1.446,1.045-2.171
															c0.321-0.741,0.758-1.421,1.179-2.112l1.267-2.077l1.464-1.958l0.735-0.982c0.251-0.323,0.544-0.612,0.814-0.92
															c4.406-5.012,9.91-8.939,15.933-11.169c5.992-2.295,12.364-3.085,18.411-2.519c6.057,0.576,11.745,2.583,16.606,5.476
															c4.87,2.898,8.913,6.701,11.966,10.885c3.064,4.186,5.137,8.745,6.344,13.213c0.66,2.228,0.939,4.461,1.235,6.606
															c0.093,2.164,0.275,4.252,0.116,6.258c-0.475,8.056-3.249,14.433-5.944,18.756l0.011-0.09
															c1.177,3.765,2.083,6.665,2.701,8.643c0.296,0.959,0.523,1.691,0.681,2.202
															C121.031,151.456,121.096,151.697,121.096,151.697s-0.096-0.264-0.263-0.765c-0.171-0.514-0.416-1.251-0.736-2.217
															c-0.642-1.952-1.583-4.814-2.805-8.53c-0.01-0.031-0.005-0.064,0.011-0.09c2.643-4.324,5.355-10.672,5.789-18.662
															c0.149-1.99-0.042-4.059-0.142-6.203c-0.303-2.125-0.587-4.336-1.249-6.539c-1.211-4.42-3.276-8.925-6.318-13.058
															c-3.031-4.131-7.037-7.882-11.855-10.737c-4.809-2.85-10.43-4.823-16.413-5.385
															c-5.974-0.552-12.264,0.235-18.178,2.503c-5.944,2.204-11.376,6.083-15.725,11.03
															c-0.267,0.304-0.556,0.589-0.804,0.908l-0.725,0.969l-1.445,1.932l-1.25,2.05c-0.416,0.682-0.847,1.353-1.164,2.085
															c-0.345,0.716-0.689,1.43-1.033,2.143c-0.377,0.698-0.572,1.471-0.866,2.2c-0.26,0.742-0.564,1.468-0.787,2.217
															c-0.195,0.758-0.389,1.513-0.583,2.267c-1.477,6.043-1.5,12.291-0.173,18.044c1.297,5.764,3.846,11.034,7.187,15.421
															c3.339,4.397,7.456,7.914,11.846,10.438c4.393,2.535,9.05,4.072,13.537,4.789c2.239,0.438,4.456,0.452,6.586,0.549
															c2.134-0.007,4.195-0.185,6.152-0.506c7.875-1.268,13.92-4.651,18.017-7.787c0.049-0.038,0.12-0.03,0.159,0.02
															c0.032,0.041,0.031,0.099,0,0.139l-0.014,0.018l-0.082-0.182c4.313,0.298,7.626,0.527,9.881,0.683
															c1.117,0.081,1.969,0.142,2.561,0.184C120.79,151.667,121.096,151.697,121.096,151.697z"/>
													</g>
												</g>
											</g>
										</g>
									</g>
								</g>
							</g>
						</g>
					</g>
				</g>
			</g>
		</g>
		<g>
			<g>
				<g>
					<g>
						<g>
							<g>
								<g>
									<g>
										<g>
											<path style="fill:#263238;" d="M71.943,119.143c0,2.249-1.823,4.073-4.072,4.073c-2.25,0-4.073-1.823-4.073-4.073
												c0-2.249,1.823-4.073,4.073-4.073C70.119,115.071,71.943,116.894,71.943,119.143z"/>
										</g>
									</g>
								</g>
							</g>
						</g>
					</g>
				</g>
			</g>
			<g>
				<g>
					<g>
						<g>
							<g>
								<g>
									<g>
										<g>
											<path style="fill:#263238;" d="M88.241,119.143c0,2.249-1.824,4.073-4.073,4.073c-2.249,0-4.073-1.823-4.073-4.073
												c0-2.249,1.823-4.073,4.073-4.073C86.418,115.071,88.241,116.894,88.241,119.143z"/>
										</g>
									</g>
								</g>
							</g>
						</g>
					</g>
				</g>
			</g>
			<g>
				<g>
					<g>
						<g>
							<g>
								<g>
									<g>
										<g>
											<path style="fill:#263238;" d="M104.498,117.107c1.125,1.948,0.457,4.439-1.491,5.563
												c-1.948,1.125-4.439,0.457-5.563-1.491c-1.125-1.948-0.457-4.439,1.491-5.564
												C100.883,114.492,103.373,115.159,104.498,117.107z"/>
										</g>
									</g>
								</g>
							</g>
						</g>
					</g>
				</g>
			</g>
		</g>
	</g>
</g>
<g id="Bot">
	<g>
		<g>
			<g>
				<path style="fill:#FF725E;" d="M106.116,299.04l-42.166-4.404l-17.793-40.49l-13.86,3.616c0,0,10.244,42.785,21.694,49.414
					c11.45,6.629,50.619,7.834,50.619,7.834L106.116,299.04z"/>
			</g>
			<g>
				
					<ellipse transform="matrix(0.6643 -0.7475 0.7475 0.6643 -191.146 188.7382)" style="fill:#263238;" cx="114.552" cy="307.175" rx="18.681" ry="18.681"/>
				<path style="fill:#263238;" d="M114.552,325.881c-4.997,0-9.694-1.946-13.227-5.479c-3.533-3.532-5.479-8.229-5.479-13.227
					s1.946-9.694,5.479-13.227c3.533-3.533,8.23-5.48,13.227-5.48s9.694,1.946,13.227,5.48c3.533,3.532,5.478,8.23,5.478,13.227
					c0,4.996-1.946,9.694-5.478,13.227C124.246,323.935,119.549,325.881,114.552,325.881z M114.552,288.52
					c-4.983,0-9.668,1.94-13.192,5.464c-3.523,3.523-5.464,8.208-5.464,13.191s1.94,9.668,5.464,13.191
					c3.524,3.524,8.209,5.464,13.192,5.464c4.983,0,9.668-1.94,13.191-5.464c3.524-3.523,5.464-8.208,5.464-13.191
					s-1.94-9.668-5.464-13.191C124.22,290.46,119.535,288.52,114.552,288.52z"/>
			</g>
			<g>
				
					<ellipse transform="matrix(0.9724 -0.2334 0.2334 0.9724 -67.695 21.4892)" style="fill:#263238;" cx="56.947" cy="296.764" rx="14.011" ry="14.011"/>
			</g>
			<g>
				
					<ellipse transform="matrix(0.7071 -0.7071 0.7071 0.7071 -165.1134 100.0506)" style="fill:#263238;" cx="38.215" cy="249.335" rx="11.447" ry="11.447"/>
			</g>
			<g>
				<path style="fill:#263238;" d="M46.652,251.088l9.411-7.948c1.035-0.874,1.166-2.422,0.292-3.457l-0.232-0.274
					c-0.874-1.035-2.422-1.166-3.457-0.291l-9.411,7.948L46.652,251.088z"/>
			</g>
			<g>
				<path style="fill:#263238;" d="M44.087,240.518v-11.964c0-1.355-1.098-2.453-2.453-2.453h-0.359
					c-1.355,0-2.453,1.098-2.453,2.453v11.964c0,0.195,0.158,0.354,0.354,0.354h4.558C43.929,240.871,44.087,240.713,44.087,240.518
					z"/>
			</g>
			<g>
				<path style="fill:#263238;" d="M38.211,240.276L35.599,228.6c-0.296-1.322-1.608-2.154-2.93-1.859l-0.35,0.078
					c-1.322,0.296-2.154,1.607-1.859,2.93l2.612,11.676c0.043,0.191,0.232,0.311,0.423,0.268l4.449-0.995
					C38.134,240.656,38.254,240.467,38.211,240.276z"/>
			</g>
			<g>
				<path style="fill:#263238;" d="M32.448,241.886l-5.982-10.361c-0.677-1.174-2.178-1.576-3.351-0.898l-0.311,0.179
					c-1.174,0.678-1.575,2.178-0.898,3.352l5.982,10.361c0.098,0.169,0.314,0.227,0.483,0.13l3.948-2.279
					C32.488,242.272,32.546,242.056,32.448,241.886z"/>
			</g>
		</g>
		<g>
			<g>
				
					<rect x="270.442" y="311.972" transform="matrix(-0.9202 0.3914 -0.3914 -0.9202 672.7504 579.7703)" style="fill:#FF725E;" width="13.697" height="92.947"/>
			</g>
			<g>
				
					<ellipse transform="matrix(0.6464 -0.763 0.763 0.6464 -146.4149 302.2926)" style="fill:#263238;" cx="252.959" cy="309.124" rx="18.681" ry="18.681"/>
				<path style="fill:#263238;" d="M252.982,327.839c-1.853,0-3.715-0.278-5.536-0.841c-4.774-1.472-8.69-4.716-11.025-9.133
					c-2.335-4.417-2.81-9.479-1.337-14.255c1.473-4.774,4.716-8.689,9.134-11.024c4.419-2.334,9.48-2.81,14.254-1.336
					c4.774,1.472,8.69,4.716,11.024,9.133c2.335,4.417,2.81,9.48,1.337,14.255c-1.473,4.774-4.716,8.69-9.134,11.024
					C258.967,327.106,255.988,327.839,252.982,327.839z M252.935,290.46c-2.997,0-5.969,0.73-8.694,2.171
					c-4.405,2.328-7.64,6.233-9.109,10.995c-1.469,4.762-0.995,9.81,1.333,14.216c2.329,4.405,6.233,7.641,10.995,9.109
					c4.763,1.468,9.812,0.995,14.216-1.334c4.406-2.328,7.641-6.233,9.11-10.995l0.023,0.008l-0.023-0.008
					c1.468-4.762,0.994-9.811-1.334-14.216c-2.329-4.405-6.233-7.641-10.996-9.109C256.641,290.738,254.783,290.46,252.935,290.46z"
					/>
			</g>
			<g>
				
					<ellipse transform="matrix(0.2678 -0.9635 0.9635 0.2678 -144.9697 531.649)" style="fill:#263238;" cx="277.291" cy="361.201" rx="14.011" ry="14.011"/>
			</g>
			<g>
				<g>
					<path style="fill:#263238;" d="M309.264,401.173c-2.002-5.997-8.486-9.236-14.483-7.234c-5.997,2.002-9.236,8.486-7.234,14.483
						c2.002,5.997,8.486,9.236,14.483,7.234C308.027,413.654,311.265,407.17,309.264,401.173z"/>
				</g>
				<g>
					<path style="fill:#263238;" d="M289.847,405.806l-6.41,10.519c-0.705,1.157-0.339,2.667,0.818,3.372l0.307,0.187
						c1.157,0.705,2.667,0.339,3.372-0.818l6.41-10.519L289.847,405.806z"/>
				</g>
				<g>
					<path style="fill:#263238;" d="M295.627,415.02l3.788,11.349c0.429,1.285,1.819,1.979,3.104,1.55l0.341-0.114
						c1.285-0.429,1.979-1.819,1.55-3.104l-3.788-11.349c-0.062-0.185-0.262-0.285-0.448-0.224l-4.324,1.443
						C295.665,414.634,295.565,414.835,295.627,415.02z"/>
				</g>
				<g>
					<path style="fill:#263238;" d="M301.277,413.389l6.174,10.248c0.699,1.161,2.207,1.535,3.368,0.835l0.308-0.185
						c1.161-0.699,1.535-2.207,0.835-3.368l-6.174-10.248c-0.101-0.167-0.318-0.221-0.486-0.12l-3.905,2.352
						C301.23,413.004,301.176,413.221,301.277,413.389z"/>
				</g>
				<g>
					<path style="fill:#263238;" d="M306.234,410.036l8.955,7.934c1.014,0.899,2.565,0.805,3.463-0.209l0.238-0.269
						c0.898-1.014,0.805-2.565-0.209-3.463l-8.955-7.934c-0.146-0.129-0.37-0.116-0.499,0.03l-3.023,3.412
						C306.074,409.683,306.088,409.907,306.234,410.036z"/>
				</g>
			</g>
		</g>
		<g>
			<path style="fill:#FF725E;" d="M108.964,287.744c0,0,1.348,131.133,74.939,133.698c73.591,2.565,76.675-132.76,76.675-133.698
				c0,0-8.691-19.557-75.807-18.791C117.655,269.718,108.964,287.744,108.964,287.744z"/>
		</g>
		<g>
			<path style="fill:#263238;" d="M150.311,264.655h62.203c4.059,0,7.35-3.29,7.35-7.35v-1.076c0-4.059-3.29-7.35-7.35-7.35h-62.203
				c-4.059,0-7.35,3.29-7.35,7.35v1.076C142.962,261.365,146.252,264.655,150.311,264.655z"/>
		</g>
		<g>
			
				<rect x="178.742" y="120.892" transform="matrix(-1 -1.224647e-16 1.224647e-16 -1 362.8548 268.9386)" style="fill:#263238;" width="5.37" height="27.154"/>
		</g>
		<g>
			
				<ellipse transform="matrix(0.9729 -0.2313 0.2313 0.9729 -42.3359 65.9096)" style="fill:#FF725E;" cx="259.903" cy="213.496" rx="15.779" ry="15.779"/>
		</g>
		<g>
			
				<ellipse transform="matrix(0.9752 -0.2212 0.2212 0.9752 -44.5059 27.5178)" style="fill:#FF725E;" cx="100.601" cy="212.457" rx="15.779" ry="15.779"/>
		</g>
		<g>
			<path style="fill:#FF725E;" d="M178.295,142.159c0,0-64.159-0.771-74.316,54.799c-10.157,55.571,44.102,56.608,59.707,57.661
				c7.077,0.477,22.216,0.526,35.575,0.295c29.576-0.514,50.474-6.238,57.586-33.677c0.829-3.2,1.389-6.485,1.598-9.827
				C260.326,181.335,239.968,140.679,178.295,142.159z"/>
		</g>
		<g>
			<path style="fill:#263238;" d="M224.839,226.797l-93.211,1.455c-9.77,0.153-17.814-7.644-17.967-17.414l0,0
				c-0.152-9.77,7.644-17.814,17.414-17.966l93.211-1.455c9.77-0.153,17.814,7.644,17.966,17.414l0,0
				C242.406,218.6,234.609,226.644,224.839,226.797z"/>
		</g>
		<g>
			<path style="fill:#FFFFFF;" d="M150.97,208.908c-0.603,3.077-3.586,5.083-6.663,4.48c-3.077-0.603-5.083-3.586-4.48-6.663
				c0.603-3.077,3.587-5.083,6.664-4.48C149.567,202.848,151.573,205.831,150.97,208.908z"/>
		</g>
		<g>
			<path style="fill:#FFFFFF;" d="M216.089,207.87c-0.603,3.077-3.586,5.083-6.663,4.48c-3.077-0.603-5.083-3.586-4.48-6.663
				c0.603-3.077,3.586-5.083,6.663-4.48C214.686,201.809,216.692,204.792,216.089,207.87z"/>
		</g>
		<g>
			<g>
				<g>
					<g>
						<path style="fill:#263238;" d="M206.719,339.822c-1.021,13.976-13.179,24.477-27.155,23.456
							c-13.976-1.022-24.478-13.179-23.456-27.155s13.179-24.477,27.155-23.456C197.239,313.689,207.74,325.846,206.719,339.822z"/>
					</g>
				</g>
				<g>
					<g>
						<path style="fill:#FFFFFF;" d="M199.854,339.32c-0.744,10.184-9.604,17.837-19.788,17.092
							c-10.184-0.745-17.837-9.604-17.092-19.788c0.745-10.184,9.604-17.836,19.788-17.092
							C192.945,320.277,200.598,329.136,199.854,339.32z"/>
					</g>
				</g>
			</g>
			<g>
				<g>
					<g>
						<path style="fill:#FF725E;" d="M190.937,342.681c-0.071-0.043-0.125-1.138-0.171-3.05c-0.046-1.913-0.084-4.637-0.087-7.967
							l0.204,0.366c-2.769-1.615-5.993-3.496-9.513-5.548l0.531,0.008c-2.985,1.677-6.221,3.496-9.599,5.394
							c-0.26,0.433,0.35-0.588,0.287-0.482v0.003v0.005l0,0.011l0,0.023l-0.001,0.045l-0.001,0.091l-0.003,0.181l-0.005,0.362
							l-0.011,0.72l-0.023,1.427c-0.016,0.946-0.031,1.88-0.047,2.801c-0.035,1.837-0.069,3.621-0.102,5.341l-0.259-0.464
							c3.477,2.124,6.646,4.06,9.398,5.741l-0.419-0.006c2.933-1.578,5.349-2.837,7.055-3.704
							C189.877,343.111,190.866,342.639,190.937,342.681c0.071,0.042-0.782,0.599-2.402,1.588c-1.62,0.988-4.012,2.412-7.01,4.144
							l-0.205,0.118l-0.214-0.125c-2.785-1.624-5.993-3.495-9.513-5.548l-0.262-0.153l0.003-0.312
							c0.017-1.72,0.035-3.504,0.054-5.341c0.012-0.921,0.023-1.855,0.035-2.8l0.02-1.427l0.01-0.72l0.005-0.362l0.003-0.181
							l0.001-0.09l0.001-0.046v-0.023l0-0.011l0-0.006v-0.003c-0.063,0.104,0.548-0.919,0.29-0.486
							c3.389-1.878,6.636-3.677,9.631-5.337l0.272-0.151l0.259,0.158c3.477,2.124,6.662,4.07,9.398,5.741l0.211,0.129l-0.007,0.237
							c-0.102,3.461-0.221,6.242-0.322,8.137C191.093,341.709,191.008,342.724,190.937,342.681z"/>
					</g>
				</g>
			</g>
		</g>
		<g>
			
				<ellipse transform="matrix(0.7071 -0.7071 0.7071 0.7071 -31.9621 163.5385)" style="fill:#FF725E;" cx="181.427" cy="120.351" rx="8.851" ry="8.851"/>
		</g>
		<g>
			<g>
				<path style="fill:#FFFFFF;" d="M167.292,206.29c0.422,0.045,0.212,2.031,1.451,4.671c0.599,1.311,1.596,2.744,3.014,3.962
					c1.407,1.219,3.281,2.154,5.334,2.367c2.059,0.163,4.071-0.417,5.676-1.361c1.615-0.94,2.856-2.169,3.682-3.35
					c1.697-2.372,1.85-4.362,2.273-4.331c0.165,0.003,0.338,0.505,0.338,1.444c0.006,0.938-0.266,2.309-1.033,3.835
					c-0.758,1.524-2.081,3.156-3.986,4.435c-1.884,1.277-4.441,2.145-7.187,1.921c-2.74-0.277-5.096-1.594-6.718-3.191
					c-1.642-1.603-2.647-3.447-3.117-5.083c-0.477-1.639-0.497-3.038-0.321-3.959C166.869,206.725,167.129,206.263,167.292,206.29z"
					/>
			</g>
		</g>
		<g>
			<g>
				<path style="fill:#263238;" d="M252.718,232.203c-0.094-0.054,1.056-1.8,2.163-4.951c1.136-3.134,2.127-7.671,2.602-12.745
					c0.507-5.077,0.43-9.711,0.3-13.051c-0.078-1.671-0.156-3.024-0.231-3.957c-0.067-0.934-0.087-1.454-0.051-1.458
					c0.036-0.004,0.124,0.507,0.253,1.438c0.137,0.929,0.272,2.282,0.397,3.957c0.225,3.348,0.361,8.008-0.149,13.122
					c-0.478,5.11-1.536,9.685-2.775,12.822c-0.602,1.575-1.223,2.796-1.698,3.607C253.035,231.79,252.749,232.222,252.718,232.203z"
					/>
			</g>
		</g>
		<g>
			<g>
				<path style="fill:#263238;" d="M104.125,195.143c0.034,0.011-0.081,0.52-0.317,1.427c-0.124,0.452-0.268,1.007-0.399,1.66
					c-0.136,0.651-0.326,1.385-0.45,2.213c-0.313,1.643-0.556,3.623-0.703,5.827c-0.114,2.206-0.112,4.638,0.102,7.179
					c0.237,2.54,0.663,4.935,1.164,7.087c0.532,2.144,1.121,4.05,1.718,5.613c0.268,0.793,0.584,1.482,0.833,2.099
					c0.244,0.62,0.484,1.14,0.685,1.563c0.392,0.851,0.595,1.332,0.563,1.349c-0.032,0.017-0.295-0.431-0.745-1.259
					c-0.23-0.411-0.498-0.922-0.769-1.534c-0.276-0.61-0.618-1.293-0.91-2.085c-0.646-1.559-1.277-3.47-1.841-5.631
					c-0.532-2.167-0.978-4.588-1.217-7.155c-0.216-2.569-0.204-5.029-0.062-7.256c0.174-2.225,0.459-4.219,0.82-5.866
					c0.149-0.83,0.365-1.564,0.529-2.212c0.159-0.65,0.333-1.2,0.487-1.646C103.91,195.619,104.09,195.131,104.125,195.143z"/>
			</g>
		</g>
		<g>
			<g>
				<path style="fill:#263238;" d="M108.658,287.627c0.003-0.008,0.134,0.03,0.386,0.113c0.275,0.093,0.644,0.219,1.114,0.379
					c1.002,0.353,2.434,0.858,4.265,1.504c0.927,0.331,1.954,0.698,3.076,1.098c1.132,0.378,2.381,0.735,3.712,1.149
					c2.672,0.794,5.679,1.821,9.097,2.625c1.7,0.436,3.48,0.893,5.334,1.368c1.857,0.467,3.821,0.815,5.836,1.253
					c4.023,0.924,8.388,1.552,12.965,2.293c9.189,1.248,19.366,2.105,30.073,2.151c10.711-0.044,20.89-0.899,30.081-2.146
					c4.579-0.741,8.944-1.368,12.967-2.291c2.015-0.437,3.979-0.785,5.836-1.252c1.854-0.475,3.635-0.932,5.334-1.368
					c3.418-0.804,6.425-1.83,9.097-2.624c1.331-0.414,2.579-0.77,3.712-1.149c1.122-0.4,2.15-0.767,3.076-1.098
					c1.831-0.645,3.262-1.15,4.264-1.503c0.47-0.16,0.839-0.285,1.114-0.379c0.252-0.083,0.383-0.121,0.386-0.112
					c0.003,0.008-0.121,0.063-0.367,0.162c-0.27,0.105-0.633,0.247-1.096,0.427c-0.995,0.375-2.416,0.911-4.234,1.596
					c-0.923,0.344-1.947,0.725-3.065,1.142c-1.129,0.393-2.375,0.763-3.703,1.191c-2.668,0.821-5.672,1.874-9.09,2.702
					c-1.7,0.447-3.481,0.915-5.336,1.403c-1.858,0.478-3.824,0.837-5.841,1.284c-4.028,0.944-8.4,1.588-12.987,2.344
					c-9.208,1.276-19.412,2.147-30.149,2.191c-10.733-0.046-20.935-0.919-30.141-2.197c-4.586-0.756-8.958-1.401-12.986-2.345
					c-2.018-0.447-3.983-0.806-5.841-1.285c-1.855-0.488-3.636-0.956-5.336-1.404c-3.418-0.828-6.422-1.882-9.09-2.703
					c-1.328-0.428-2.574-0.799-3.703-1.192c-1.118-0.417-2.142-0.798-3.065-1.142c-1.818-0.685-3.239-1.221-4.234-1.597
					c-0.463-0.18-0.826-0.322-1.096-0.427C108.779,287.69,108.654,287.635,108.658,287.627z"/>
			</g>
		</g>
		<g style="opacity:0.3;">
			<path d="M108.964,287.744c0,0,8.691-18.026,75.807-18.791c67.116-0.765,75.807,18.791,75.807,18.791
				S192.877,321.134,108.964,287.744z"/>
		</g>
		<g>
			<g>
				<path style="fill:#FFFFFF;" d="M170.174,146.316c0,0.009-0.078,0.022-0.231,0.039c-0.184,0.017-0.407,0.037-0.678,0.061
					c-0.595,0.062-1.478,0.08-2.605,0.216c-2.259,0.205-5.521,0.65-9.469,1.569c-3.948,0.913-8.566,2.392-13.427,4.645
					c-4.86,2.244-9.93,5.321-14.711,9.236c-4.752,3.953-8.736,8.348-11.862,12.694c-3.134,4.346-5.463,8.6-7.108,12.303
					c-1.652,3.702-2.707,6.819-3.337,8.999c-0.347,1.081-0.533,1.944-0.706,2.517c-0.076,0.262-0.138,0.477-0.189,0.654
					c-0.046,0.147-0.073,0.221-0.082,0.219c-0.009-0.002,0.002-0.08,0.03-0.231c0.038-0.181,0.083-0.4,0.139-0.667
					c0.141-0.581,0.295-1.454,0.613-2.547c0.572-2.203,1.578-5.351,3.196-9.093c1.611-3.742,3.921-8.042,7.055-12.433
					c3.126-4.392,7.13-8.832,11.921-12.816c4.82-3.946,9.937-7.034,14.842-9.27c4.906-2.244,9.566-3.696,13.545-4.568
					c3.98-0.878,7.263-1.269,9.534-1.413c1.133-0.105,2.02-0.091,2.618-0.119c0.273-0.004,0.497-0.007,0.681-0.01
					C170.095,146.302,170.174,146.307,170.174,146.316z"/>
			</g>
		</g>
		<g>
			<g>
				<path style="fill:#FFFFFF;" d="M107.396,223.296c-0.06,0.025-0.447-0.722-0.912-1.997c-0.466-1.273-0.982-3.085-1.305-5.134
					c-0.319-2.05-0.382-3.934-0.328-5.288c0.053-1.356,0.193-2.185,0.258-2.18c0.164,0.007-0.063,3.347,0.585,7.387
					C106.312,220.128,107.549,223.239,107.396,223.296z"/>
			</g>
		</g>
		<g>
			<g>
				<path style="fill:#FFFFFF;" d="M90.568,218.129c-0.025,0.021-0.227-0.162-0.541-0.539c-0.315-0.376-0.725-0.963-1.131-1.747
					c-0.816-1.549-1.524-4.011-1.167-6.721c0.362-2.71,1.688-4.903,2.879-6.186c0.596-0.651,1.145-1.111,1.547-1.392
					c0.402-0.282,0.645-0.406,0.663-0.38c0.058,0.075-0.843,0.685-1.931,2.012c-1.085,1.306-2.297,3.43-2.642,6.014
					c-0.34,2.583,0.275,4.95,0.982,6.494C89.932,217.247,90.643,218.072,90.568,218.129z"/>
			</g>
		</g>
		<g>
			<g>
				<path style="fill:#FFFFFF;" d="M182.014,114.183c-0.022,0.098-0.913-0.23-2.353-0.058c-1.404,0.147-3.423,0.957-4.621,2.796
					c-1.174,1.855-1.069,4.028-0.619,5.366c0.443,1.382,1.112,2.055,1.032,2.116c-0.022,0.021-0.208-0.123-0.483-0.443
					c-0.277-0.319-0.617-0.84-0.896-1.55c-0.566-1.381-0.761-3.728,0.528-5.77c1.32-2.021,3.534-2.821,5.026-2.881
					c0.762-0.041,1.377,0.051,1.782,0.17C181.816,114.045,182.024,114.154,182.014,114.183z"/>
			</g>
		</g>
		<g>
			<g>
				<path style="fill:#FFFFFF;" d="M269.162,206c-0.109,0.118-1.665-1.367-4.015-2.492c-2.339-1.15-4.468-1.453-4.443-1.611
					c-0.004-0.128,2.234-0.051,4.67,1.143C267.819,204.213,269.266,205.923,269.162,206z"/>
			</g>
		</g>
		<g>
			<g>
				<path style="fill:#FFFFFF;" d="M132.043,381.069c-0.008,0.004-0.051-0.061-0.127-0.193c-0.089-0.16-0.196-0.354-0.327-0.59
					c-0.298-0.564-0.703-1.329-1.214-2.293c-0.261-0.505-0.548-1.061-0.861-1.666c-0.29-0.625-0.604-1.3-0.94-2.024
					c-0.681-1.45-1.447-3.105-2.191-4.979c-0.383-0.934-0.784-1.91-1.201-2.927c-0.382-1.033-0.779-2.106-1.191-3.217
					c-0.859-2.211-1.587-4.638-2.445-7.162c-1.567-5.094-3.105-10.752-4.455-16.753c-1.321-6.009-2.333-11.784-3.13-17.053
					c-0.736-5.278-1.319-10.042-1.639-14.06c-0.195-2.005-0.312-3.824-0.412-5.421c-0.112-1.596-0.187-2.972-0.219-4.099
					c-0.036-1.09-0.065-1.955-0.086-2.592c-0.004-0.27-0.007-0.491-0.009-0.675c0.001-0.152,0.006-0.23,0.015-0.23
					c0.009,0,0.022,0.077,0.039,0.228c0.016,0.183,0.036,0.403,0.061,0.672c0.045,0.636,0.106,1.498,0.183,2.586
					c0.064,1.124,0.168,2.496,0.308,4.089c0.128,1.593,0.27,3.408,0.488,5.408c0.366,4.007,0.986,8.759,1.747,14.023
					c0.821,5.255,1.846,11.015,3.163,17.01c1.347,5.987,2.867,11.634,4.405,16.723c0.843,2.52,1.553,4.947,2.393,7.158
					c0.4,1.112,0.787,2.186,1.159,3.219c0.405,1.018,0.795,1.997,1.167,2.932c0.72,1.879,1.461,3.539,2.115,4.997
					c0.321,0.728,0.621,1.409,0.899,2.038c0.298,0.612,0.571,1.173,0.819,1.683c0.473,0.982,0.849,1.761,1.126,2.335
					c0.113,0.246,0.205,0.447,0.281,0.614C132.024,380.991,132.051,381.065,132.043,381.069z"/>
			</g>
		</g>
		<g>
			<g>
				<path style="fill:#FFFFFF;" d="M92.87,299.544c-0.01,0.143-3.282,0.027-7.307-0.259c-4.026-0.287-7.281-0.636-7.271-0.779
					c0.01-0.143,3.281-0.027,7.308,0.26C89.625,299.052,92.881,299.401,92.87,299.544z"/>
			</g>
		</g>
		<g>
			<g>
				<path style="fill:#FFFFFF;" d="M55.25,278.193c-0.126,0.069-1.83-2.832-3.806-6.478c-1.976-3.647-3.475-6.658-3.348-6.727
					c0.126-0.068,1.83,2.832,3.806,6.479C53.877,275.113,55.376,278.125,55.25,278.193z"/>
			</g>
		</g>
		<g>
			<g>
				<path style="fill:#FFFFFF;" d="M167.501,412.599c-0.006,0.035-0.422-0.017-1.172-0.143c-0.751-0.114-1.824-0.367-3.127-0.755
					c-1.307-0.38-2.825-0.958-4.46-1.714c-1.622-0.78-3.354-1.753-5.062-2.941c-1.697-1.205-3.198-2.506-4.482-3.769
					c-1.265-1.283-2.322-2.516-3.122-3.617c-0.806-1.095-1.407-2.019-1.769-2.687c-0.372-0.663-0.562-1.036-0.531-1.054
					c0.085-0.051,0.921,1.405,2.591,3.517c0.828,1.061,1.901,2.253,3.167,3.5c1.285,1.227,2.773,2.497,4.445,3.685
					c1.683,1.171,3.381,2.141,4.97,2.935c1.601,0.769,3.086,1.375,4.365,1.795C165.867,412.208,167.52,412.502,167.501,412.599z"/>
			</g>
		</g>
		<g>
			<g>
				<path style="fill:#FFFFFF;" d="M182.842,366.336c0.001,0.018-0.24,0.042-0.701,0.072c-0.461,0.009-1.143,0.11-2.02,0.058
					c-1.755-0.004-4.313-0.286-7.333-1.19c-1.512-0.443-3.112-1.105-4.776-1.921c-1.63-0.878-3.346-1.888-4.966-3.207
					c-3.273-2.575-6.311-6.189-8.272-10.61c-1.893-4.453-2.459-9.141-2.106-13.291c0.143-2.085,0.577-4.028,1.048-5.819
					c0.539-1.773,1.148-3.394,1.857-4.801c1.401-2.823,2.942-4.884,4.137-6.169c0.561-0.677,1.101-1.106,1.422-1.436
					c0.336-0.317,0.518-0.476,0.531-0.463c0.04,0.04-0.665,0.709-1.799,2.032c-1.14,1.316-2.617,3.389-3.958,6.196
					c-0.679,1.399-1.259,3.006-1.773,4.759c-0.446,1.77-0.858,3.686-0.985,5.739c-0.322,4.087,0.252,8.684,2.105,13.047
					c1.922,4.331,4.889,7.888,8.094,10.443c1.586,1.308,3.268,2.315,4.865,3.198c1.631,0.821,3.201,1.494,4.687,1.954
					c2.967,0.936,5.489,1.272,7.23,1.338C181.869,366.338,182.84,366.28,182.842,366.336z"/>
			</g>
		</g>
		<g>
			<g>
				<path style="fill:#FFFFFF;" d="M61.772,287.587c-0.042,0.084-0.773-0.289-2.035-0.576c-1.256-0.293-3.07-0.404-4.988,0.05
					c-1.916,0.465-3.482,1.388-4.469,2.219c-0.994,0.828-1.477,1.492-1.552,1.436c-0.043-0.024,0.337-0.777,1.308-1.712
					c0.959-0.935,2.581-1.963,4.591-2.449c2.011-0.478,3.923-0.297,5.202,0.1C61.118,287.047,61.799,287.546,61.772,287.587z"/>
			</g>
		</g>
		<g>
			<g>
				<path style="fill:#FFFFFF;" d="M209.436,188.159c0,0.144-12.278,0.26-27.42,0.26c-15.148,0-27.423-0.117-27.423-0.26
					c0-0.144,12.275-0.26,27.423-0.26C197.158,187.898,209.436,188.015,209.436,188.159z"/>
			</g>
		</g>
		<g>
			<g>
				<path style="fill:#FFFFFF;" d="M162.644,250.686c0.001,0.018-0.158,0.043-0.464,0.075c-0.367,0.032-0.808,0.07-1.338,0.115
					c-0.581,0.05-1.293,0.096-2.122,0.109c-0.828,0.018-1.772,0.065-2.815,0.033c-2.087-0.005-4.571-0.148-7.316-0.439
					c-2.741-0.32-5.742-0.806-8.846-1.526c-3.101-0.741-6.003-1.646-8.6-2.583c-2.587-0.965-4.874-1.945-6.743-2.872
					c-0.948-0.436-1.771-0.9-2.504-1.285c-0.736-0.381-1.352-0.74-1.85-1.044c-0.454-0.277-0.831-0.508-1.146-0.7
					c-0.259-0.165-0.39-0.259-0.381-0.274c0.009-0.016,0.158,0.048,0.434,0.184c0.327,0.168,0.72,0.37,1.191,0.613
					c0.512,0.276,1.14,0.608,1.886,0.963c0.743,0.359,1.574,0.798,2.527,1.211c1.881,0.88,4.169,1.819,6.749,2.753
					c2.589,0.906,5.476,1.791,8.556,2.527c3.084,0.715,6.061,1.212,8.782,1.556c2.725,0.315,5.192,0.495,7.268,0.548
					c1.037,0.056,1.977,0.034,2.802,0.044c0.826,0.015,1.536-0.002,2.117-0.02c0.531-0.007,0.973-0.013,1.34-0.017
					C162.481,250.658,162.643,250.668,162.644,250.686z"/>
			</g>
		</g>
		<g>
			<g>
				<path style="fill:#FFFFFF;" d="M242.466,295.754c0.003,0.009-0.078,0.045-0.239,0.109c-0.19,0.071-0.427,0.16-0.719,0.27
					c-0.674,0.24-1.604,0.571-2.782,0.99c-1.207,0.435-2.691,0.943-4.44,1.456c-1.745,0.523-3.717,1.174-5.943,1.729
					c-1.11,0.294-2.271,0.601-3.481,0.921c-1.212,0.315-2.489,0.575-3.803,0.88c-2.623,0.636-5.463,1.135-8.444,1.698
					c-5.982,1.009-12.606,1.854-19.595,2.306c-6.994,0.407-13.674,0.38-19.735,0.11c-3.028-0.193-5.908-0.342-8.589-0.651
					c-1.341-0.142-2.641-0.244-3.882-0.408c-1.24-0.169-2.43-0.332-3.568-0.487c-2.277-0.278-4.314-0.684-6.11-0.989
					c-1.798-0.295-3.333-0.618-4.584-0.902c-1.22-0.272-2.183-0.486-2.882-0.642c-0.303-0.073-0.549-0.132-0.746-0.18
					c-0.168-0.043-0.252-0.07-0.25-0.079c0.002-0.009,0.091,0,0.262,0.027c0.201,0.034,0.449,0.077,0.757,0.129
					c0.703,0.132,1.672,0.315,2.899,0.546c1.256,0.253,2.794,0.546,4.594,0.814c1.798,0.277,3.834,0.657,6.11,0.911
					c1.136,0.145,2.326,0.296,3.564,0.453c1.24,0.154,2.537,0.244,3.876,0.377c2.677,0.29,5.55,0.422,8.571,0.602
					c6.046,0.243,12.706,0.256,19.68-0.15c6.969-0.451,13.576-1.279,19.546-2.259c2.975-0.548,5.811-1.03,8.432-1.646
					c1.313-0.296,2.589-0.545,3.801-0.849c1.21-0.308,2.372-0.604,3.482-0.886c2.228-0.531,4.203-1.157,5.953-1.652
					c1.754-0.486,3.245-0.965,4.461-1.37c1.19-0.38,2.13-0.679,2.811-0.896c0.299-0.09,0.541-0.162,0.736-0.221
					C242.377,295.766,242.463,295.746,242.466,295.754z"/>
			</g>
		</g>
	</g>
</g>
</svg>
