<?xml version="1.0" encoding="utf-8"?>
<!-- Generator: Adobe Illustrator 27.5.0, SVG Export Plug-In . SVG Version: 6.00 Build 0)  -->
<svg version="1.1" xmlns="http://www.w3.org/2000/svg" xmlns:xlink="http://www.w3.org/1999/xlink" x="0px" y="0px"
	 viewBox="0 0 500 500" style="enable-background:new 0 0 500 500;" xml:space="preserve">
<g id="Background_Complete">
	<g>
		<rect y="382.398" style="fill:#EBEBEB;" width="500" height="0.25"/>
		<rect x="416.779" y="398.494" style="fill:#EBEBEB;" width="33.122" height="0.25"/>
		<rect x="322.527" y="401.208" style="fill:#EBEBEB;" width="8.693" height="0.25"/>
		<rect x="396.586" y="389.208" style="fill:#EBEBEB;" width="19.192" height="0.25"/>
		<rect x="52.459" y="390.888" style="fill:#EBEBEB;" width="43.193" height="0.25"/>
		<rect x="104.556" y="390.888" style="fill:#EBEBEB;" width="6.333" height="0.25"/>
		<rect x="131.471" y="395.111" style="fill:#EBEBEB;" width="93.676" height="0.25"/>
		<path style="fill:#EBEBEB;" d="M237.014,337.8H43.915c-3.147,0-5.708-2.561-5.708-5.708V60.66c0-3.147,2.561-5.708,5.708-5.708
			h193.099c3.146,0,5.707,2.561,5.707,5.708v271.432C242.721,335.239,240.16,337.8,237.014,337.8z M43.915,55.203
			c-3.01,0-5.458,2.448-5.458,5.458v271.432c0,3.01,2.448,5.458,5.458,5.458h193.099c3.009,0,5.457-2.448,5.457-5.458V60.66
			c0-3.009-2.448-5.458-5.457-5.458H43.915z"/>
		<path style="fill:#EBEBEB;" d="M453.31,337.8H260.212c-3.147,0-5.707-2.561-5.707-5.708V60.66c0-3.147,2.561-5.708,5.707-5.708
			H453.31c3.148,0,5.708,2.561,5.708,5.708v271.432C459.019,335.239,456.458,337.8,453.31,337.8z M260.212,55.203
			c-3.009,0-5.457,2.448-5.457,5.458v271.432c0,3.01,2.448,5.458,5.457,5.458H453.31c3.01,0,5.458-2.448,5.458-5.458V60.66
			c0-3.009-2.448-5.458-5.458-5.458H260.212z"/>
	</g>
	<g>
		<g>
			<g>
				<rect x="69.02" y="88.606" style="fill:#E6E6E6;" width="251.58" height="144.13"/>
				<rect x="70.768" y="88.606" style="fill:#F0F0F0;" width="253.573" height="144.13"/>
				
					<rect x="131.374" y="39.123" transform="matrix(-1.836970e-16 1 -1 -1.836970e-16 358.2261 -36.8838)" style="fill:#FAFAFA;" width="132.362" height="243.097"/>
				<polygon style="fill:#FFFFFF;" points="105.843,226.852 136.588,94.49 176.891,94.49 146.146,226.852 				"/>
				<polygon style="fill:#FFFFFF;" points="152.668,226.852 183.413,94.49 201.614,94.49 170.869,226.852 				"/>
				<polygon style="fill:#FFFFFF;" points="224.89,226.852 255.635,94.49 286.721,94.49 255.976,226.852 				"/>
				
					<rect x="252.59" y="160.339" transform="matrix(-1.836970e-16 1 -1 -1.836970e-16 479.4419 -158.0995)" style="fill:#E6E6E6;" width="132.362" height="0.665"/>
				<rect x="189.999" y="88.606" style="fill:#F0F0F0;" width="15.113" height="144.13"/>
				
					<rect x="123.485" y="160.339" transform="matrix(-1.836970e-16 1 -1 -1.836970e-16 350.3372 -28.9949)" style="fill:#E6E6E6;" width="132.362" height="0.665"/>
				<rect x="197.292" y="88.606" style="fill:#E6E6E6;" width="0.526" height="144.13"/>
			</g>
		</g>
		<g>
			<rect x="208.503" y="289.114" style="fill:#E6E6E6;" width="21.33" height="93.284"/>
			<polygon style="fill:#F5F5F5;" points="220.596,382.398 229.833,382.398 229.833,366.919 210.911,366.919 			"/>
			<rect x="43.024" y="289.114" style="fill:#E6E6E6;" width="21.33" height="93.284"/>
			<rect x="56.293" y="289.114" style="fill:#F5F5F5;" width="173.541" height="87.956"/>
			<polygon style="fill:#F5F5F5;" points="65.53,382.398 56.293,382.398 56.293,366.919 75.215,366.919 			"/>
			<rect x="63.458" y="296.514" style="fill:#F0F0F0;" width="159.209" height="32.442"/>
			<path style="fill:#FFFFFF;" d="M143.064,322.21c-5.225,0-9.475-4.25-9.475-9.475c0-5.224,4.25-9.475,9.475-9.475
				c5.225,0,9.475,4.25,9.475,9.475C152.538,317.96,148.288,322.21,143.064,322.21z M143.064,304.261
				c-4.673,0-8.475,3.802-8.475,8.475c0,4.673,3.802,8.475,8.475,8.475c4.673,0,8.475-3.802,8.475-8.475
				C151.538,308.063,147.736,304.261,143.064,304.261z"/>
			<rect x="63.458" y="336.792" style="fill:#F0F0F0;" width="159.209" height="32.442"/>
			<path style="fill:#FFFFFF;" d="M143.064,362.488c-5.225,0-9.476-4.251-9.476-9.475c0-5.225,4.251-9.475,9.476-9.475
				c5.225,0,9.475,4.25,9.475,9.475C152.538,358.238,148.288,362.488,143.064,362.488z M143.064,344.538
				c-4.674,0-8.476,3.802-8.476,8.475s3.802,8.475,8.476,8.475c4.673,0,8.475-3.802,8.475-8.475S147.736,344.538,143.064,344.538z"
				/>
		</g>
		<g>
			<g>
				<g>
					
						<rect x="251.441" y="313.284" transform="matrix(-1 -1.224647e-16 1.224647e-16 -1 573.7584 695.6792)" style="fill:#E6E6E6;" width="70.877" height="69.112"/>
					<rect x="322.318" y="313.284" style="fill:#F0F0F0;" width="93.154" height="69.112"/>
					
						<rect x="251.441" y="307.397" transform="matrix(-1 -1.224647e-16 1.224647e-16 -1 666.9125 626.2569)" style="opacity:0.7;fill:#E6E6E6;" width="164.031" height="11.463"/>
				</g>
				<g>
					
						<rect x="247.866" y="306.667" transform="matrix(-1 -1.224647e-16 1.224647e-16 -1 570.1838 619.9503)" style="fill:#E6E6E6;" width="74.452" height="6.617"/>
					<rect x="322.318" y="306.667" style="fill:#F0F0F0;" width="96.729" height="6.617"/>
				</g>
			</g>
			<g>
				
					<ellipse transform="matrix(0.4203 -0.9074 0.9074 0.4203 -78.6138 591.986)" style="fill:#E6E6E6;" cx="423.995" cy="357.518" rx="24.878" ry="24.878"/>
				<path style="opacity:0.7;fill:#E6E6E6;" d="M418.345,339.18c-2.098,0.389-3.953-0.129-4.143-1.155
					c-0.19-1.026,1.357-2.173,3.454-2.562c2.098-0.388,3.953,0.129,4.143,1.155C421.989,337.645,420.443,338.792,418.345,339.18z"/>
				<path style="opacity:0.7;fill:#E6E6E6;" d="M408.756,345.226c-1.491,1.526-3.306,2.171-4.052,1.442
					c-0.747-0.73-0.143-2.558,1.349-4.084c1.491-1.526,3.305-2.171,4.052-1.442C410.851,341.872,410.247,343.701,408.756,345.226z"
					/>
				<path style="opacity:0.7;fill:#E6E6E6;" d="M417.168,348.244c-1.7,1.29-3.719,1.49-4.51,0.447
					c-0.791-1.043-0.055-2.934,1.645-4.223c1.7-1.29,3.719-1.49,4.51-0.447C419.604,345.064,418.868,346.955,417.168,348.244z"/>
			</g>
		</g>
		<g>
			<rect x="358.799" y="105.731" style="fill:#E6E6E6;" width="71.667" height="109.88"/>
			<rect x="360.466" y="105.731" style="fill:#F5F5F5;" width="76.071" height="109.88"/>
			
				<rect x="348.412" y="127.486" transform="matrix(-1.836970e-16 1 -1 -1.836970e-16 559.1727 -237.8302)" style="fill:#FFFFFF;" width="100.179" height="66.37"/>
			
				<rect x="395.691" y="139.168" transform="matrix(-1.836970e-16 1 -1 -1.836970e-16 559.1726 -237.8302)" style="fill:#F5F5F5;" width="5.622" height="43.006"/>
			
				<rect x="395.691" y="124.995" transform="matrix(-1.836970e-16 1 -1 -1.836970e-16 544.9994 -252.0034)" style="fill:#F5F5F5;" width="5.622" height="43.006"/>
			
				<rect x="395.691" y="110.822" transform="matrix(-1.836970e-16 1 -1 -1.836970e-16 530.8262 -266.1766)" style="fill:#F5F5F5;" width="5.622" height="43.006"/>
			
				<rect x="395.691" y="153.341" transform="matrix(-1.836970e-16 1 -1 -1.836970e-16 573.3458 -223.657)" style="fill:#F5F5F5;" width="5.622" height="43.006"/>
			
				<rect x="395.691" y="167.515" transform="matrix(-1.836970e-16 1 -1 -1.836970e-16 587.5191 -209.4837)" style="fill:#F5F5F5;" width="5.622" height="43.006"/>
		</g>
	</g>
</g>
<g id="Background_Simple" style="display:none;">
	<g style="display:inline;">
		<path style="fill:#407BFF;" d="M237.801,111.812c-50.85,15.227-172.529,11.623-135.254,103.523
			c24.44,60.256,149.506,86.191,205.632,69.865c63.143-18.367,106.918-83.958,91.932-147.916
			c-7.985-34.079-37.396-66.529-76.476-66.106C289.26,71.55,268.511,102.616,237.801,111.812z"/>
		<path style="opacity:0.9;fill:#FFFFFF;" d="M237.801,111.812c-50.85,15.227-172.529,11.623-135.254,103.523
			c24.44,60.256,149.506,86.191,205.632,69.865c63.143-18.367,106.918-83.958,91.932-147.916
			c-7.985-34.079-37.396-66.529-76.476-66.106C289.26,71.55,268.511,102.616,237.801,111.812z"/>
	</g>
</g>
<g id="Shadow_1_">
	<ellipse id="_x3C_Path_x3E__90_" style="fill:#F5F5F5;" cx="250" cy="416.238" rx="193.889" ry="11.323"/>
</g>
<g id="Character_1_">
	<g>
		<polygon style="fill:#FFC3BD;" points="211.752,407.539 219.333,405.45 216.512,387.339 208.931,389.428 		"/>
		<polygon style="fill:#FFC3BD;" points="147.259,407.734 155.122,407.734 157.08,389.524 149.217,389.524 		"/>
		<path style="fill:#263238;" d="M155.769,406.824h-9.587c-0.321,0-0.6,0.223-0.669,0.537l-1.553,6.99
			c-0.161,0.725,0.409,1.411,1.151,1.398c3.084-0.053,5.335-0.234,9.22-0.234c2.39,0,9.598,0.248,12.898,0.248
			c3.228,0,3.732-3.264,2.38-3.559c-6.059-1.325-10.624-3.153-12.564-4.897C156.695,406.993,156.239,406.824,155.769,406.824z"/>
		<path style="fill:#263238;" d="M219.038,404.587l-8.279,2.282c-0.31,0.085-0.519,0.375-0.503,0.696l0.36,7.151
			c0.037,0.741,0.75,1.257,1.462,1.048c2.972-0.874,7.24-2.238,10.993-3.273c4.389-1.21,8.245-2.015,13.392-3.433
			c3.112-0.858,3.109-4.242,1.728-4.168c-6.288,0.337-11.169,1.533-17.164-0.215C220.375,404.484,219.692,404.407,219.038,404.587z"
			/>
		<path style="fill:#FFC3BD;" d="M190.282,161.54c0.304,0.37,0.753,0.9,1.153,1.355l1.252,1.424c0.847,0.947,1.72,1.877,2.609,2.784
			c1.792,1.802,3.609,3.565,5.511,5.165c3.757,3.214,7.867,5.959,11.82,7.193c0.494,0.174,0.972,0.263,1.457,0.391l0.71,0.119
			c0.424,0.059-0.004,0.034-0.028,0.074c-0.122,0.045,0.087,0.057,0.402-0.056c0.316-0.097,0.732-0.272,1.17-0.501
			c0.885-0.461,1.863-1.113,2.83-1.832c0.982-0.708,1.969-1.498,2.946-2.327c3.907-3.324,7.796-7.14,11.565-10.898l4.744,3.516
			c-2.843,4.945-5.988,9.537-9.822,13.939c-1.953,2.191-3.981,4.328-6.808,6.313c-0.72,0.495-1.504,0.984-2.44,1.434
			c-0.935,0.437-2.045,0.865-3.527,1.06c-0.706,0.103-1.819,0.055-2.072,0.016l-1.326-0.12c-0.857-0.134-1.732-0.255-2.552-0.462
			c-1.674-0.367-3.252-0.892-4.747-1.512c-1.511-0.605-2.922-1.317-4.295-2.064c-2.74-1.501-5.212-3.262-7.556-5.105
			c-2.323-1.87-4.516-3.835-6.556-5.932c-1.021-1.046-2.018-2.113-2.991-3.206c-0.484-0.549-0.973-1.095-1.439-1.669
			c-0.483-0.587-0.905-1.112-1.445-1.817L190.282,161.54z"/>
		<polygon style="fill:#263238;" points="193.027,185.566 196.09,188.64 210.167,177.359 205.13,173.449 		"/>
		<g>
			<path style="fill:#263238;" d="M176.531,164.927c-0.583,7.496,16.297,22.791,16.297,22.791l14.92-12.941
				c0,0-6.284-6.653-13.34-13.346C189.554,156.827,177.162,156.819,176.531,164.927z"/>
			<path style="opacity:0.5;fill:#407BFF;" d="M176.531,164.927c-0.583,7.496,16.297,22.791,16.297,22.791l14.92-12.941
				c0,0-6.284-6.653-13.34-13.346C189.554,156.827,177.162,156.819,176.531,164.927z"/>
			<path style="opacity:0.2;" d="M197.994,183.24c-0.15-0.7-0.34-1.4-0.55-2.09c-1.94-6.16-6.37-11.74-13.31-12.37
				c-3.13-0.28-4.05,1.92-3.81,5.15c4.82,6.83,12.5,13.789,12.5,13.789l1.26-1.09l2.01,2.01l2.41-1.93
				C198.424,185.57,198.254,184.4,197.994,183.24z"/>
		</g>
		<path style="fill:#FFC3BD;" d="M233.065,167.119l2.246-6.598l8.835,2.266c0,0-2.808,3.344-5.985,5.723L233.065,167.119z"/>
		<polygon style="fill:#FFC3BD;" points="238.814,157.678 246.128,160.222 244.146,162.786 235.311,160.521 		"/>
		<g>
			<polygon style="opacity:0.2;" points="216.511,387.344 217.966,396.679 210.382,398.769 208.927,389.434 			"/>
			<polygon style="opacity:0.2;" points="149.214,389.529 157.081,389.529 156.068,398.916 148.201,398.916 			"/>
		</g>
		<g>
			<path style="fill:#263238;" d="M144.574,161.3c2.425,8.689,3.975,17.538,4.997,25.866c0.743,6.094,1.191,11.908,1.467,17.182
				c0.654,12.36,0.382,21.784,0.749,24.977c6.149-0.426,29.321-2.038,41.955-2.922c5.714-44.73-5.197-67.776-5.197-67.776
				s-4.645-0.926-10.043-1.242c-0.711-0.046-1.434-0.071-2.168-0.085c-4.752-0.101-12.498,0.612-17.838,1.242
				c-1.123,0.133-2.258,0.298-3.362,0.476C149.518,159.931,144.574,161.3,144.574,161.3z"/>
			<path style="opacity:0.5;fill:#407BFF;" d="M144.574,161.3c2.425,8.689,3.975,17.538,4.997,25.866
				c0.743,6.094,1.191,11.908,1.467,17.182c0.654,12.36,0.382,21.784,0.749,24.977c6.149-0.426,29.321-2.038,41.955-2.922
				c5.714-44.73-5.197-67.776-5.197-67.776s-4.645-0.926-10.043-1.242c-0.711-0.046-1.434-0.071-2.168-0.085
				c-4.752-0.101-12.498,0.612-17.838,1.242c-1.123,0.133-2.258,0.298-3.362,0.476C149.518,159.931,144.574,161.3,144.574,161.3z"/>
			<g>
				<path style="fill:#FFFFFF;" d="M184.333,184.428l-9.16,0.613c-0.278,0.019-0.544-0.19-0.593-0.466l-0.077-0.434
					c-0.071-0.399-0.561-0.608-0.857-0.364l-4.93,4.064c-0.264,0.218-0.187,0.655,0.148,0.833l6.242,3.316
					c0.374,0.199,0.78-0.07,0.709-0.469l-0.077-0.434c-0.049-0.276,0.137-0.515,0.415-0.534l9.16-0.613
					c0.278-0.019,0.464-0.258,0.415-0.534l-0.802-4.513C184.877,184.619,184.611,184.41,184.333,184.428z"/>
				<path style="fill:#FFFFFF;" d="M167.989,182.16l9.16-0.613c0.278-0.019,0.544,0.19,0.593,0.467l0.077,0.434
					c0.071,0.399,0.561,0.608,0.857,0.364l4.93-4.064c0.264-0.218,0.187-0.655-0.148-0.833l-6.242-3.316
					c-0.374-0.199-0.78,0.07-0.709,0.469l0.077,0.434c0.049,0.276-0.137,0.515-0.415,0.534l-9.16,0.613
					c-0.278,0.019-0.464,0.258-0.415,0.534l0.802,4.513C167.445,181.969,167.711,182.178,167.989,182.16z"/>
			</g>
		</g>
		<path style="fill:#263238;" d="M158.495,158.54c5.34-0.63,13.09-1.34,17.84-1.24c0.73,0.01,1.46,0.04,2.17,0.08
			c0.08,0,0.17,0.01,0.25,0.02c1.27,2.63,2.919,10.457-2.931,11.267c-7.94,1.1-16.919-5.757-20.689-9.647
			C156.235,158.84,157.375,158.67,158.495,158.54z"/>
		<path style="opacity:0.2;" d="M155.168,172.617c0.023,7.031-1.917,12.973-5.194,18.181c-0.117-1.197-0.256-2.406-0.404-3.628
			c-0.56-4.578-1.282-9.318-2.239-14.106L155.168,172.617z"/>
		<path style="fill:#FFC3BD;" d="M158.865,138.335c1.525,5.66,3.382,16.097-0.365,20.206c3.155,2.826,7.695,5.101,14.132,4.511
			c4.93-0.451,4.937-3.92,3.703-5.755c-6.506-1.082-6.672-5.841-5.869-10.378L158.865,138.335z"/>
		<path style="opacity:0.2;" d="M163.595,141.838l6.866,5.077c-0.194,1.074-0.327,2.159-0.329,3.204
			c-2.469-0.183-6.015-2.632-6.453-5.174C163.46,143.678,163.428,142.447,163.595,141.838z"/>
		<path style="fill:#263238;" d="M187.732,108.428c2.904,6.118-8.526,20.968-17.853,19.376c-4.539-0.775-10.594-2.391-15.615-3.846
			c-4.536-1.314-6.196-7.295-1.889-8.053C166.975,113.333,182.909,98.268,187.732,108.428z"/>
		<path style="fill:#FFC3BD;" d="M157.58,129.746c1.02,7.737,1.223,12.318,5.426,16.032c6.322,5.587,15.665,1.359,16.978-6.527
			c1.182-7.098-0.684-18.559-8.506-21.12C163.771,115.608,156.56,122.009,157.58,129.746z"/>
		<path style="fill:#263238;" d="M172.638,139.641c-0.001,0-0.003,0-0.004,0c-3.207,0.204-4.816-1.902-4.883-1.992
			c-0.066-0.089-0.048-0.214,0.041-0.28c0.089-0.066,0.214-0.048,0.28,0.04c0.015,0.02,1.554,2.021,4.536,1.831
			c0.11-0.007,0.206,0.077,0.213,0.187C172.828,139.538,172.747,139.632,172.638,139.641z"/>
		<path style="fill:#263238;" d="M163.017,133.25c2.933-6.385,3.562-12.911-1.792-14.907c-5.354-1.997-9.864,0.679-11.357,4.709
			C148.375,127.082,158.743,142.553,163.017,133.25z"/>
		<path style="fill:#263238;" d="M156.931,121.078c5.379,3.854,23.823,4.083,21.22-2.837
			C176.202,113.059,163.394,113.219,156.931,121.078z"/>
		<path style="fill:#FFC3BD;" d="M154.668,138.557c1.227,1.71,3.129,2.693,4.84,2.946c2.573,0.38,3.535-2,2.548-4.258
			c-0.889-2.033-3.298-4.68-5.75-4.026C153.89,133.862,153.265,136.602,154.668,138.557z"/>
		<g>
			<path style="fill:#407BFF;" d="M220.325,394.145l-12.838,3.532c0,0-16.075-50.677-20.026-78.509
				c-1.048-7.38-2.664-17.757-5.131-28.817c-3.115-13.935-7.022-29.003-10.221-40.803c-3.375-12.427-5.945-21.223-5.945-21.223
				l27.583-1.923c0,0,14.925,65.094,16.507,89.041C211.904,340.344,220.325,394.145,220.325,394.145z"/>
			<path style="opacity:0.3;fill:#FAFAFA;" d="M220.325,394.145l-12.838,3.532c0,0-16.075-50.677-20.026-78.509
				c-1.048-7.38-2.664-17.757-5.131-28.817c-3.115-13.935-7.022-29.003-10.221-40.803c-3.375-12.427-5.945-21.223-5.945-21.223
				l27.583-1.923c0,0,14.925,65.094,16.507,89.041C211.904,340.344,220.325,394.145,220.325,394.145z"/>
		</g>
		<path style="opacity:0.2;" d="M182.33,290.351c-3.115-13.935-7.022-29.003-10.221-40.803l2.863-6.164
			C181.814,251.514,183.654,276.68,182.33,290.351z"/>
		<g>
			<path style="fill:#407BFF;" d="M178.866,227.44c0,0-2.977,67.322-6.296,90.122c-3.635,24.968-12.868,79.536-12.868,79.536
				h-14.402c0,0-0.241-51.74,4.27-75.923c5.138-27.547,2.223-91.845,2.223-91.845L178.866,227.44z"/>
			<path style="opacity:0.3;fill:#FAFAFA;" d="M178.866,227.44c0,0-2.977,67.322-6.296,90.122
				c-3.635,24.968-12.868,79.536-12.868,79.536h-14.402c0,0-0.241-51.74,4.27-75.923c5.138-27.547,2.223-91.845,2.223-91.845
				L178.866,227.44z"/>
		</g>
		<polygon style="fill:#407BFF;" points="161.426,397.409 144.466,397.409 144.466,392.343 163.424,392.013 		"/>
		<polygon style="fill:#407BFF;" points="221.212,394.222 206.722,398.216 204.634,393.222 221.152,388.643 		"/>
		<path style="fill:#263238;" d="M169.518,131.096c0.044,0.633,0.415,1.122,0.829,1.093c0.414-0.029,0.713-0.565,0.669-1.198
			c-0.044-0.633-0.415-1.122-0.829-1.093C169.773,129.927,169.474,130.463,169.518,131.096z"/>
		<path style="fill:#263238;" d="M176.669,130.597c0.044,0.633,0.415,1.122,0.829,1.093c0.414-0.029,0.713-0.565,0.669-1.198
			c-0.044-0.633-0.415-1.122-0.829-1.093C176.925,129.428,176.625,129.964,176.669,130.597z"/>
		<path style="fill:#ED847E;" d="M174.418,131.07c0,0,1.693,3.55,3.4,5.2c-1.046,1.123-3.08,0.625-3.08,0.625L174.418,131.07z"/>
		<path style="fill:#263238;" d="M167.135,128.939c0.135,0.015,0.274-0.045,0.352-0.167c0.907-1.392,2.28-1.407,2.294-1.407
			c0.206,0,0.373-0.167,0.373-0.372c0-0.205-0.158-0.375-0.373-0.373c-0.073,0-1.793,0.019-2.918,1.745
			c-0.113,0.172-0.064,0.403,0.108,0.515C167.024,128.913,167.079,128.932,167.135,128.939z"/>
		<path style="fill:#263238;" d="M179.563,127.92c0.075,0.008,0.154-0.007,0.225-0.048c0.179-0.103,0.24-0.33,0.137-0.508
			c-1.027-1.786-2.741-1.905-2.816-1.906c-0.205-0.011-0.381,0.146-0.393,0.351c-0.011,0.205,0.155,0.382,0.349,0.393l0,0
			c0.058,0.008,1.392,0.105,2.214,1.533C179.342,127.843,179.449,127.908,179.563,127.92z"/>
		<path style="fill:#407BFF;" d="M158.369,408.198c0.598,0,1.158-0.102,1.515-0.401c0.281-0.237,0.411-0.568,0.385-0.984
			c-0.02-0.31-0.184-0.457-0.319-0.526c-0.873-0.449-3.406,1.112-3.693,1.291c-0.064,0.04-0.097,0.114-0.085,0.188
			c0.012,0.074,0.067,0.133,0.14,0.151C156.857,408.047,157.642,408.198,158.369,408.198z M159.537,406.57
			c0.098,0,0.179,0.015,0.242,0.047c0.05,0.026,0.109,0.074,0.118,0.219c0.019,0.296-0.064,0.518-0.253,0.676
			c-0.43,0.361-1.456,0.41-2.792,0.142C157.739,407.14,158.934,406.57,159.537,406.57z"/>
		<path style="fill:#407BFF;" d="M156.355,407.921c0.031,0,0.061-0.007,0.089-0.022c0.814-0.442,2.387-2.165,2.221-3.042
			c-0.03-0.159-0.147-0.434-0.593-0.488c-0.287-0.034-0.555,0.045-0.794,0.24c-0.913,0.747-1.101,3.016-1.109,3.112
			c-0.005,0.069,0.027,0.134,0.084,0.171C156.285,407.91,156.32,407.921,156.355,407.921z M157.943,404.733
			c0.028,0,0.056,0.002,0.084,0.005c0.242,0.03,0.263,0.141,0.272,0.188c0.098,0.517-0.904,1.82-1.713,2.434
			c0.092-0.663,0.342-1.986,0.928-2.464C157.648,404.787,157.789,404.733,157.943,404.733z"/>
		<path style="fill:#407BFF;" d="M220.065,405.428c0.011,0.001,0.022,0.002,0.033,0.001c1.289-0.093,3.544-0.395,4.171-1.359
			c0.189-0.291,0.222-0.616,0.096-0.966c-0.075-0.209-0.223-0.346-0.428-0.396c-1.053-0.247-3.683,2.126-3.978,2.399
			c-0.058,0.054-0.076,0.138-0.045,0.211C219.941,405.38,219.999,405.421,220.065,405.428z M223.796,403.061
			c0.018,0.002,0.036,0.005,0.052,0.009c0.084,0.02,0.133,0.068,0.166,0.161c0.086,0.238,0.067,0.446-0.057,0.637
			c-0.352,0.541-1.58,0.958-3.331,1.141C221.683,404.094,223.183,402.994,223.796,403.061z"/>
		<path style="fill:#407BFF;" d="M220.065,405.428c0.049,0.005,0.1-0.009,0.139-0.042c0.802-0.663,2.163-2.802,1.788-3.621
			c-0.088-0.192-0.303-0.403-0.807-0.318c-0.377,0.064-0.683,0.26-0.911,0.582c-0.746,1.058-0.387,3.156-0.371,3.245
			c0.011,0.065,0.056,0.12,0.119,0.143C220.035,405.423,220.049,405.426,220.065,405.428z M221.461,401.804
			c0.145,0.016,0.178,0.088,0.191,0.117c0.225,0.491-0.652,2.119-1.431,2.938c-0.067-0.624-0.133-1.919,0.356-2.614
			c0.17-0.242,0.389-0.382,0.668-0.43C221.337,401.8,221.407,401.798,221.461,401.804z"/>
		<g>
			<g>
				<path style="fill:#263238;" d="M144.426,226.781L144.426,226.781c-0.143-1.745-1.306-3.101-2.804-3.27l-23.402-2.641
					c-1.776-0.2-3.405,1.32-3.639,3.396l-6.859,60.781c-0.234,2.076,1.015,3.921,2.791,4.122l74.262,8.38
					c1.775,0.2,3.405-1.32,3.639-3.396l5.761-51.054c0.234-2.076-1.015-3.921-2.791-4.122l-40.41-4.56
					C147.477,234.023,144.761,230.856,144.426,226.781z"/>
				<path style="fill:#407BFF;" d="M154.305,240.107L154.305,240.107c0.12-1.524-0.856-2.723-2.354-2.892l-23.402-2.641
					c-1.775-0.2-3.665,1.102-4.22,2.909l-14.801,48.189c-0.555,1.807,0.434,3.435,2.21,3.635l74.262,8.38
					c1.775,0.2,3.665-1.102,4.22-2.909l12.2-39.722c0.555-1.807-0.434-3.435-2.21-3.635l-40.41-4.56
					C156.303,246.467,154.023,243.665,154.305,240.107z"/>
			</g>
			<path style="fill:#FFC3BD;" d="M153.047,172.826l-2.208,3.153c-0.747,1.08-1.479,2.175-2.196,3.279
				c-1.447,2.199-2.837,4.429-4.192,6.665c-1.326,2.249-2.586,4.515-3.768,6.793c-1.124,2.291-2.199,4.585-3.057,6.881l-0.078,0.199
				l-0.027,0.085c-0.019,0.057-0.043,0.112-0.07,0.169c-0.035,0.182-0.088,0.337-0.126,0.549c-0.074,0.426-0.128,0.922-0.17,1.46
				c-0.08,1.077-0.067,2.288,0.003,3.526c0.145,2.48,0.421,5.094,0.809,7.71c0.758,5.236,1.739,10.62,2.754,15.905l-5.603,1.863
				c-2.357-5.164-4.332-10.37-5.931-15.859c-0.771-2.75-1.501-5.541-1.968-8.518c-0.238-1.489-0.428-3.021-0.49-4.689
				c-0.033-0.836-0.017-1.711,0.06-2.65c0.039-0.47,0.121-0.989,0.194-1.484l0.187-0.829l0.1-0.413l0.085-0.289
				c1.66-5.859,4.09-11.177,6.829-16.242c1.374-2.528,2.846-4.986,4.394-7.388c0.781-1.197,1.577-2.382,2.395-3.558
				c0.82-1.198,1.634-2.301,2.593-3.538L153.047,172.826z"/>
			<polygon style="fill:#263238;" points="132.296,179.889 129.768,183.417 143.213,195.444 146.241,189.833 			"/>
			<g>
				<path style="fill:#263238;" d="M144.574,161.3c-7.37,1.487-13.835,19.513-13.835,19.513l15.381,12.529
					c0,0,5.04-9.163,9.072-18.004C159.583,165.708,153.501,159.499,144.574,161.3z"/>
				<path style="opacity:0.5;fill:#407BFF;" d="M144.574,161.3c-7.37,1.487-13.835,19.513-13.835,19.513l15.381,12.529
					c0,0,5.04-9.163,9.072-18.004C159.583,165.708,153.501,159.499,144.574,161.3z"/>
			</g>
			<path style="fill:#FFC3BD;" d="M139.891,227.659l5.305,5.965l-9.606,2.937c0,0-3.389-6.081-0.368-8.236L139.891,227.659z"/>
			<polygon style="fill:#FFC3BD;" points="145.651,240.176 137.598,242.232 135.59,236.56 145.196,233.623 			"/>
		</g>
	</g>
</g>
<g id="Folder">
	<g>
		<g>
			<path style="fill:#263238;" d="M325.788,133.23L325.788,133.23c-0.532-1.668-1.97-2.728-3.467-2.556l-23.397,2.686
				c-1.775,0.204-3.021,2.051-2.783,4.127l6.976,60.767c0.238,2.076,1.871,3.593,3.646,3.389l74.246-8.523
				c1.775-0.204,3.021-2.051,2.783-4.127l-5.86-51.042c-0.238-2.076-1.871-3.593-3.646-3.389l-40.401,4.638
				C330.388,139.601,327.03,137.126,325.788,133.23z"/>
			<g>
				<g>
					<path style="fill:#407BFF;" d="M337.041,111.084c5.117,22.361,8.454,45.373,9.879,68.812
						c-18.446,2.196-36.901,3.92-55.346,5.172c-1.424-25.724-5.49-50.805-11.942-74.863c13.029-3.506,26.013-7.26,38.946-11.263
						C324.789,102.793,330.946,106.84,337.041,111.084z"/>
					<path style="opacity:0.7;fill:#FAFAFA;" d="M337.041,111.084c5.117,22.361,8.454,45.373,9.879,68.812
						c-18.446,2.196-36.901,3.92-55.346,5.172c-1.424-25.724-5.49-50.805-11.942-74.863c13.029-3.506,26.013-7.26,38.946-11.263
						C324.789,102.793,330.946,106.84,337.041,111.084z"/>
					<g>
						<path style="fill:#407BFF;" d="M333.89,122.67c-14.421,3.618-28.886,6.934-43.387,9.948c-0.624,0.129-1.237-0.289-1.366-0.926
							l0,0c-0.129-0.637,0.274-1.27,0.897-1.402c14.482-3.103,28.927-6.506,43.324-10.21c0.619-0.159,1.248,0.294,1.395,1.008l0,0
							C334.899,121.802,334.51,122.515,333.89,122.67z"/>
						<path style="fill:#407BFF;" d="M335.448,130.796c-14.488,3.343-29.015,6.385-43.572,9.125
							c-0.626,0.115-1.232-0.313-1.348-0.956l0,0c-0.116-0.638,0.298-1.264,0.924-1.388c14.54-2.829,29.048-5.959,43.514-9.39
							c0.622-0.149,1.242,0.317,1.375,1.038l0,0C336.474,129.943,336.071,130.654,335.448,130.796z"/>
						<path style="fill:#407BFF;" d="M336.847,138.973c-14.55,3.068-29.134,5.837-43.741,8.301
							c-0.628,0.109-1.225-0.338-1.329-0.985c0,0,0,0,0,0c-0.104-0.644,0.323-1.265,0.951-1.375
							c14.592-2.553,29.158-5.408,43.689-8.564c0.625-0.135,1.236,0.343,1.354,1.067l0,0
							C337.89,138.138,337.473,138.843,336.847,138.973z"/>
						<path style="fill:#407BFF;" d="M338.088,147.201c-14.607,2.792-29.242,5.284-43.895,7.472c-0.63,0.093-1.219-0.365-1.31-1.014
							l0,0c-0.091-0.65,0.348-1.261,0.977-1.361c14.639-2.277,29.258-4.856,43.848-7.738c0.627-0.127,1.229,0.367,1.334,1.097l0,0
							C339.146,146.386,338.716,147.078,338.088,147.201z"/>
						<path style="fill:#407BFF;" d="M321.674,158.332c-8.841,1.372-17.688,2.632-26.54,3.784c-0.632,0.084-1.211-0.389-1.289-1.042
							l0,0c-0.078-0.656,0.373-1.26,1.004-1.346c8.844-1.206,17.684-2.521,26.516-3.945c0.631-0.102,1.218,0.388,1.304,1.092
							c0,0,0,0,0,0C322.754,157.574,322.305,158.23,321.674,158.332z"/>
					</g>
					<path style="fill:#407BFF;" d="M337.041,111.084c-4.813,1.355-9.632,2.677-14.457,3.965c-1.228-5.41-2.564-10.78-4.006-16.107
						C324.789,102.793,330.946,106.84,337.041,111.084z"/>
				</g>
			</g>
			<path style="fill:#407BFF;" d="M338.409,143.995L338.409,143.995c-0.225-1.512-1.446-2.461-2.943-2.289l-23.397,2.686
				c-1.775,0.204-3.324,1.898-3.458,3.783l-3.593,50.283c-0.135,1.886,1.195,3.249,2.97,3.045l74.246-8.523
				c1.775-0.204,3.323-1.898,3.458-3.783l2.961-41.448c0.135-1.886-1.195-3.249-2.97-3.045l-40.401,4.638
				C341.785,149.743,338.934,147.526,338.409,143.995z"/>
		</g>
		<g>
			<g>
				<path style="fill:#407BFF;" d="M281.57,183.005c-2.084,20.72-4.646,41.333-7.679,61.826c-18.251-2.89-36.512-5.687-54.781-8.387
					c3.632-24.585,6.557-49.356,8.761-74.284c13.438,1.212,26.875,2.475,40.31,3.789C272.68,171.578,277.144,177.262,281.57,183.005
					z"/>
				<path style="opacity:0.7;fill:#FAFAFA;" d="M281.57,183.005c-2.084,20.72-4.646,41.333-7.679,61.826
					c-18.251-2.89-36.512-5.687-54.781-8.387c3.632-24.585,6.557-49.356,8.761-74.284c13.438,1.212,26.875,2.475,40.31,3.789
					C272.68,171.578,277.144,177.262,281.57,183.005z"/>
				<g>
					<path style="fill:#407BFF;" d="M275.122,191.786c-14.707-1.736-29.417-3.41-44.129-5.024c-0.633-0.071-1.094-0.646-1.026-1.286
						c0,0,0,0,0,0c0.068-0.639,0.641-1.11,1.274-1.037c14.716,1.587,29.429,3.237,44.138,4.946c0.633,0.071,1.093,0.674,1.022,1.335
						l0,0C276.33,191.382,275.754,191.859,275.122,191.786z"/>
					<path style="fill:#407BFF;" d="M274.294,199.273c-14.697-1.817-29.397-3.573-44.101-5.267
						c-0.632-0.074-1.091-0.655-1.019-1.291l0,0c0.072-0.636,0.647-1.1,1.28-1.028c14.707,1.669,29.41,3.398,44.11,5.189
						c0.632,0.078,1.089,0.68,1.015,1.339c0,0,0,0,0,0C275.505,198.881,274.926,199.354,274.294,199.273z"/>
					<path style="fill:#407BFF;" d="M273.425,206.75c-14.686-1.898-29.377-3.734-44.071-5.51c-0.632-0.078-1.087-0.66-1.012-1.296
						l0,0c0.075-0.635,0.653-1.093,1.285-1.02c14.697,1.749,29.391,3.56,44.08,5.432c0.632,0.08,1.085,0.685,1.007,1.344
						c0,0,0,0,0,0C274.637,206.358,274.056,206.831,273.425,206.75z"/>
					<path style="fill:#407BFF;" d="M272.513,214.218c-14.675-1.979-29.355-3.896-44.039-5.752c-0.632-0.082-1.083-0.664-1.005-1.3
						l0,0c0.079-0.638,0.659-1.091,1.291-1.013c14.687,1.83,29.37,3.722,44.049,5.675c0.631,0.085,1.081,0.694,1,1.349l0,0
						C273.728,213.834,273.144,214.302,272.513,214.218z"/>
					<path style="fill:#407BFF;" d="M254.069,219.248c-8.837-1.211-17.675-2.4-26.515-3.567c-0.631-0.081-1.079-0.669-0.997-1.305
						l0,0c0.082-0.636,0.665-1.09,1.297-1.005c8.842,1.151,17.682,2.325,26.521,3.521c0.631,0.086,1.079,0.687,0.995,1.335
						c0,0,0,0,0,0C255.285,218.875,254.699,219.335,254.069,219.248z"/>
				</g>
				<path style="fill:#407BFF;" d="M281.57,183.005c-4.948-0.554-9.897-1.102-14.846-1.643c0.515-5.132,1.001-10.268,1.457-15.414
					C272.68,171.578,277.144,177.262,281.57,183.005z"/>
			</g>
		</g>
	</g>
</g>
</svg>
