<?xml version="1.0" encoding="utf-8"?>
<!-- Generator: Adobe Illustrator 27.5.0, SVG Export Plug-In . SVG Version: 6.00 Build 0)  -->
<svg version="1.1" xmlns="http://www.w3.org/2000/svg" xmlns:xlink="http://www.w3.org/1999/xlink" x="0px" y="0px"
	 viewBox="0 0 2000 2000" style="enable-background:new 0 0 2000 2000;" xml:space="preserve">
<g id="BACKGROUND">
	<rect style="fill:#FFFFFF;" width="2000" height="2000"/>
</g>
<g id="OBJECTS">
	<g>
		<g>
			<g>
				
					<ellipse transform="matrix(0.7071 -0.7071 0.7071 0.7071 167.9726 1217.854)" style="fill:#D1D1FF;" cx="1554.066" cy="406.166" rx="85.007" ry="85.007"/>
				<g>
					<path style="fill:#FFFFFF;" d="M1562.812,444.214v11.761h-14.946v-11.235c-10.597-0.638-20.874-3.495-27.234-7.421
						l8.051-18.225c6.998,4.133,16.318,6.783,24.481,6.783c7.102,0,9.647-1.484,9.647-4.03c0-9.328-41.015-1.803-41.015-29.46
						c0-11.977,8.69-22.048,26.069-24.481v-11.55h14.946v11.335c7.835,0.742,15.472,2.761,21.513,6.153l-7.525,18.121
						c-7.318-3.711-14.204-5.514-20.667-5.514c-7.318,0-9.647,2.123-9.647,4.668c0,8.897,41.015,1.484,41.015,28.822
						C1587.5,431.383,1579.233,441.35,1562.812,444.214z"/>
				</g>
			</g>
			<g>
				<circle style="fill:#D1D1FF;" cx="1406.28" cy="521.65" r="51.496"/>
				<g>
					<path style="fill:#FFFFFF;" d="M1411.578,544.7v7.125h-9.054v-6.806c-6.419-0.387-12.645-2.117-16.498-4.496l4.877-11.04
						c4.24,2.504,9.885,4.109,14.83,4.109c4.302,0,5.844-0.899,5.844-2.441c0-5.651-24.846-1.093-24.846-17.847
						c0-7.256,5.264-13.356,15.792-14.83v-6.997h9.054v6.866c4.747,0.45,9.373,1.673,13.032,3.727l-4.558,10.978
						c-4.433-2.248-8.604-3.34-12.52-3.34c-4.433,0-5.844,1.286-5.844,2.828c0,5.39,24.846,0.899,24.846,17.46
						C1426.533,536.926,1421.526,542.964,1411.578,544.7z"/>
				</g>
			</g>
			<g>
				
					<ellipse transform="matrix(0.2259 -0.9741 0.9741 0.2259 654.6349 1933.1692)" style="fill:#D1D1FF;" cx="1543.703" cy="554.676" rx="39.736" ry="39.736"/>
				<g>
					<path style="fill:#FFFFFF;" d="M1547.791,572.462v5.498h-6.986v-5.252c-4.953-0.299-9.757-1.634-12.73-3.469l3.763-8.519
						c3.271,1.932,7.628,3.171,11.444,3.171c3.32,0,4.51-0.694,4.51-1.884c0-4.36-19.172-0.843-19.172-13.771
						c0-5.599,4.062-10.306,12.186-11.443v-5.399h6.986v5.298c3.663,0.347,7.232,1.291,10.056,2.876l-3.517,8.471
						c-3.421-1.734-6.639-2.578-9.661-2.578c-3.421,0-4.51,0.992-4.51,2.182c0,4.159,19.172,0.694,19.172,13.472
						C1559.331,566.464,1555.467,571.123,1547.791,572.462z"/>
				</g>
			</g>
			<g>
				<g>
					<rect x="1377.938" y="381.5" style="fill:#9192FF;" width="5.811" height="41.647"/>
				</g>
				<g>
					<rect x="1360.02" y="399.418" style="fill:#9192FF;" width="41.647" height="5.811"/>
				</g>
			</g>
			<g>
				<g>
					<rect x="1426.858" y="270.047" style="fill:#9192FF;" width="8.729" height="62.555"/>
				</g>
				<g>
					<rect x="1399.945" y="296.961" style="fill:#9192FF;" width="62.555" height="8.729"/>
				</g>
			</g>
			<g>
				<g>
					<rect x="1625.154" y="589.946" style="fill:#9192FF;" width="6.609" height="47.366"/>
				</g>
				<g>
					<rect x="1604.775" y="610.325" style="fill:#9192FF;" width="47.366" height="6.609"/>
				</g>
			</g>
		</g>
		<g>
			
				<ellipse transform="matrix(0.7071 -0.7071 0.7071 0.7071 -54.0657 722.6192)" style="opacity:0.4;fill:#E5E5FF;" cx="845.246" cy="426.573" rx="77.117" ry="77.117"/>
			<circle style="opacity:0.4;fill:#E5E5FF;" cx="1029.292" cy="1356.899" r="86.792"/>
			<path style="fill:#9192FF;" d="M868.565,1484.198c-0.912,0-1.822-0.007-2.73-0.021l0.041-2.5
				c4.116,0.067,8.298-0.022,12.399-0.262l0.146,2.496C875.163,1484.101,871.847,1484.197,868.565,1484.198z M853.269,1483.505
				c-4.171-0.38-8.371-0.922-12.482-1.613l0.414-2.465c4.05,0.68,8.187,1.215,12.295,1.588L853.269,1483.505z M890.948,1482.706
				l-0.333-2.479c4.084-0.548,8.194-1.259,12.216-2.113l0.519,2.445C899.267,1481.427,895.094,1482.149,890.948,1482.706z
				 M828.461,1479.339c-4.064-1.005-8.134-2.177-12.097-3.484l0.783-2.375c3.902,1.288,7.911,2.443,11.913,3.432L828.461,1479.339z
				 M915.554,1477.479l-0.704-2.398c3.95-1.16,7.905-2.486,11.754-3.942l0.885,2.338
				C923.581,1474.954,919.565,1476.301,915.554,1477.479z M804.556,1471.456c-3.86-1.609-7.709-3.387-11.437-5.284l1.134-2.229
				c3.672,1.869,7.462,3.62,11.265,5.204L804.556,1471.456z M939.075,1468.582l-1.06-2.264c3.727-1.744,7.433-3.652,11.016-5.673
				l1.228,2.178C946.621,1464.874,942.858,1466.813,939.075,1468.582z M782.117,1460.038c-3.567-2.17-7.102-4.507-10.505-6.947
				l1.457-2.031c3.352,2.403,6.833,4.705,10.347,6.842L782.117,1460.038z M960.977,1456.232l-1.389-2.078
				c3.426-2.29,6.804-4.735,10.042-7.271l1.541,1.969C967.884,1451.426,964.455,1453.908,960.977,1456.232z M761.663,1445.374
				c-3.205-2.685-6.348-5.525-9.34-8.441l1.745-1.791c2.948,2.873,6.043,5.671,9.201,8.316L761.663,1445.374z M980.782,1440.728
				l-1.684-1.848c3.038-2.771,6.014-5.696,8.842-8.694l1.818,1.715C986.887,1434.944,983.867,1437.914,980.782,1440.728z
				 M743.643,1427.815c-2.767-3.134-5.448-6.412-7.969-9.742l1.993-1.51c2.483,3.281,5.125,6.51,7.85,9.598L743.643,1427.815z
				 M998.047,1422.424l-1.942-1.574c2.598-3.207,5.101-6.546,7.441-9.925l2.055,1.424
				C1003.226,1415.778,1000.685,1419.168,998.047,1422.424z M728.461,1407.761c-2.268-3.519-4.425-7.16-6.412-10.825l2.197-1.191
				c1.957,3.609,4.082,7.196,6.316,10.661L728.461,1407.761z M1012.375,1401.731l-2.156-1.264c2.083-3.556,4.057-7.234,5.863-10.935
				l2.246,1.098C1016.494,1394.387,1014.491,1398.121,1012.375,1401.731z M716.474,1385.658c-1.708-3.812-3.29-7.736-4.702-11.663
				l2.353-0.846c1.391,3.867,2.949,7.732,4.631,11.487L716.474,1385.658z M1023.424,1379.106l-2.324-0.924
				c1.521-3.826,2.914-7.763,4.141-11.7l2.387,0.744C1026.382,1371.225,1024.968,1375.222,1023.424,1379.106z M707.967,1361.995
				c-1.11-4.028-2.08-8.151-2.88-12.254l2.454-0.479c0.789,4.04,1.744,8.101,2.837,12.068L707.967,1361.995z M1030.911,1355.074
				l-2.438-0.559c0.921-4.008,1.699-8.105,2.314-12.18l2.473,0.373C1032.636,1346.846,1031.845,1351.006,1030.911,1355.074z
				 M703.143,1337.308c-0.488-4.146-0.825-8.366-1.001-12.545l2.498-0.105c0.173,4.117,0.504,8.274,0.985,12.357L703.143,1337.308z
				 M1034.669,1330.201l-2.492-0.186c0.305-4.092,0.46-8.261,0.46-12.39h2.5C1035.137,1321.817,1034.979,1326.048,1034.669,1330.201
				z M1032.627,1315.956c-0.04-4.125-0.237-8.292-0.584-12.386l2.49-0.211c0.354,4.155,0.553,8.385,0.594,12.572L1032.627,1315.956z
				 M704.579,1312.254l-2.499-0.08c0.135-4.186,0.429-8.409,0.875-12.555l2.485,0.268
				C705,1303.97,704.711,1308.131,704.579,1312.254z M1030.531,1291.267c-0.656-4.067-1.478-8.157-2.439-12.155l2.432-0.584
				c0.976,4.059,1.81,8.211,2.477,12.341L1030.531,1291.267z M707.229,1287.619l-2.458-0.455c0.761-4.115,1.688-8.247,2.756-12.282
				l2.417,0.641C708.892,1279.496,707.979,1283.565,707.229,1287.619z M1024.733,1267.176c-1.264-3.913-2.694-7.831-4.255-11.644
				l2.315-0.947c1.583,3.871,3.037,7.85,4.319,11.823L1024.733,1267.176z M713.571,1263.667l-2.361-0.822
				c1.376-3.952,2.922-7.9,4.593-11.733l2.292,1C716.448,1255.886,714.926,1259.773,713.571,1263.667z M1015.355,1244.252
				c-1.839-3.672-3.846-7.326-5.964-10.861l2.144-1.285c2.15,3.589,4.188,7.299,6.056,11.027L1015.355,1244.252z M723.482,1240.933
				l-2.209-1.17c1.958-3.697,4.083-7.363,6.313-10.898l2.114,1.334C727.503,1233.68,725.412,1237.292,723.482,1240.933z
				 M1002.621,1223.008c-2.378-3.363-4.912-6.676-7.533-9.845l1.927-1.594c2.66,3.219,5.233,6.581,7.647,9.995L1002.621,1223.008z
				 M736.711,1219.964l-2.008-1.49c2.491-3.357,5.142-6.662,7.878-9.822l1.89,1.637
				C741.776,1213.4,739.165,1216.656,736.711,1219.964z M986.836,1203.908c-2.855-2.968-5.858-5.864-8.926-8.608l1.667-1.863
				c3.114,2.785,6.163,5.726,9.061,8.739L986.836,1203.908z M752.935,1201.224l-1.762-1.773c2.966-2.947,6.081-5.817,9.258-8.529
				l1.623,1.9C758.925,1195.494,755.857,1198.32,752.935,1201.224z M968.361,1187.384c-3.265-2.505-6.669-4.92-10.118-7.176
				l1.368-2.092c3.502,2.29,6.958,4.741,10.273,7.285L968.361,1187.384z M771.777,1185.129l-1.477-2.018
				c3.371-2.467,6.879-4.836,10.428-7.043l1.32,2.123C778.553,1180.365,775.097,1182.699,771.777,1185.129z M947.611,1173.815
				c-3.613-1.989-7.343-3.863-11.088-5.569l1.037-2.275c3.801,1.732,7.588,3.636,11.257,5.655L947.611,1173.815z M792.813,1172.05
				l-1.155-2.217c3.709-1.934,7.532-3.746,11.365-5.389l0.984,2.299C800.232,1168.359,796.466,1170.146,792.813,1172.05z
				 M925.042,1163.534c-3.866-1.419-7.834-2.704-11.794-3.822l0.68-2.406c4.021,1.136,8.049,2.441,11.976,3.881L925.042,1163.534z
				 M815.568,1162.301l-0.807-2.365c3.954-1.349,8.011-2.563,12.06-3.607l0.625,2.42
				C823.458,1159.777,819.462,1160.973,815.568,1162.301z M901.198,1156.8c-4.022-0.813-8.139-1.483-12.236-1.991l0.308-2.48
				c4.16,0.516,8.339,1.195,12.424,2.021L901.198,1156.8z M839.558,1156.109l-0.439-2.461c4.1-0.731,8.294-1.317,12.465-1.74
				l0.253,2.486C847.729,1154.813,843.597,1155.39,839.558,1156.109z M876.61,1153.747c-4.12-0.199-8.297-0.243-12.4-0.136
				l-0.066-2.5c4.166-0.107,8.405-0.063,12.586,0.138L876.61,1153.747z"/>
			<path style="fill:#9192FF;" d="M733.212,495.969l-0.023-2.5c4.115-0.037,8.256-0.319,12.309-0.84l0.318,2.479
				C741.667,495.642,737.426,495.932,733.212,495.969z M720.592,495.334c-4.181-0.461-8.372-1.181-12.456-2.139l0.57-2.434
				c3.987,0.935,8.079,1.637,12.16,2.087L720.592,495.334z M758.234,492.744l-0.615-2.423c3.976-1.009,7.93-2.272,11.753-3.753
				l0.903,2.331C766.359,490.416,762.308,491.71,758.234,492.744z M696.019,489.568c-3.941-1.446-7.84-3.149-11.588-5.064
				l1.138-2.227c3.658,1.869,7.463,3.532,11.311,4.943L696.019,489.568z M781.765,483.629l-1.177-2.205
				c3.611-1.928,7.148-4.099,10.512-6.452l1.433,2.049C789.087,479.431,785.464,481.654,781.765,483.629z M673.538,478.084
				c-3.482-2.344-6.86-4.926-10.044-7.675l1.634-1.893c3.108,2.685,6.408,5.206,9.807,7.495L673.538,478.084z M802.435,469.17
				l-1.667-1.863c3.055-2.734,5.978-5.682,8.688-8.763l1.877,1.651C808.559,463.35,805.565,466.37,802.435,469.17z M654.439,461.591
				c-2.83-3.105-5.501-6.413-7.939-9.831l2.035-1.452c2.381,3.338,4.989,6.567,7.751,9.6L654.439,461.591z M819.099,450.22
				l-2.06-1.415c2.324-3.386,4.465-6.944,6.363-10.576l2.216,1.157C823.673,443.107,821.48,446.752,819.099,450.22z
				 M639.794,441.051c-2.013-3.689-3.819-7.535-5.371-11.433l2.323-0.925c1.514,3.805,3.278,7.56,5.242,11.16L639.794,441.051z
				 M830.786,427.845l-2.339-0.882c1.448-3.84,2.675-7.808,3.648-11.794l2.429,0.593
				C833.527,419.846,832.269,423.911,830.786,427.845z M630.468,417.613c-1.07-4.059-1.904-8.229-2.478-12.394l2.477-0.342
				c0.56,4.066,1.374,8.136,2.419,12.098L630.468,417.613z M836.775,403.326l-2.482-0.297c0.485-4.057,0.73-8.202,0.73-12.318
				c0-1.239-0.022-2.495-0.066-3.731l2.498-0.09c0.045,1.267,0.068,2.552,0.068,3.821
				C837.523,394.926,837.271,399.17,836.775,403.326z M627.015,392.623c-0.011-0.636-0.017-1.274-0.017-1.913
				c0-3.574,0.181-7.179,0.539-10.712l2.487,0.252c-0.349,3.45-0.526,6.97-0.526,10.461c0,0.625,0.005,1.247,0.017,1.867
				L627.015,392.623z M833.783,374.697c-0.635-4.057-1.523-8.111-2.639-12.052l2.405-0.682c1.144,4.038,2.054,8.192,2.704,12.347
				L833.783,374.697z M632.001,368.07l-2.439-0.549c0.923-4.104,2.106-8.192,3.517-12.149l2.354,0.839
				C634.056,360.074,632.901,364.064,632.001,368.07z M827.069,350.999c-1.584-3.777-3.416-7.499-5.446-11.063l2.173-1.237
				c2.079,3.65,3.956,7.463,5.579,11.333L827.069,350.999z M640.271,344.855l-2.236-1.117c1.875-3.754,4.002-7.439,6.32-10.951
				l2.087,1.377C644.178,337.593,642.102,341.19,640.271,344.855z M814.887,329.602c-2.439-3.293-5.106-6.475-7.924-9.458
				l1.817-1.717c2.887,3.055,5.617,6.313,8.116,9.686L814.887,329.602z M653.846,324.292l-1.907-1.617
				c2.716-3.203,5.655-6.276,8.734-9.135l1.701,1.832C659.367,318.163,656.497,321.164,653.846,324.292z M797.967,311.696
				c-3.155-2.626-6.5-5.087-9.94-7.315l1.358-2.099c3.525,2.282,6.95,4.802,10.182,7.492L797.967,311.696z M671.903,307.534
				l-1.47-2.023c3.4-2.471,6.982-4.761,10.646-6.804l1.218,2.184C678.719,302.886,675.222,305.121,671.903,307.534z M777.28,298.309
				c-3.688-1.801-7.524-3.394-11.4-4.735l0.817-2.362c3.971,1.374,7.9,3.006,11.679,4.851L777.28,298.309z M693.409,295.547
				l-0.945-2.314c3.89-1.59,7.917-2.958,11.969-4.065l0.659,2.411C701.137,292.66,697.206,293.995,693.409,295.547z
				 M753.991,290.251c-4.002-0.861-8.106-1.489-12.197-1.866l0.23-2.489c4.19,0.386,8.394,1.028,12.494,1.911L753.991,290.251z
				 M717.167,289.049l-0.364-2.474c4.142-0.609,8.378-0.976,12.59-1.089l0.067,2.499
				C725.347,288.096,721.211,288.454,717.167,289.049z"/>
			<path style="fill:#9192FF;" d="M312.5,1033.69c-19.988,0-36.25-16.262-36.25-36.25c0-19.988,16.262-36.25,36.25-36.25
				s36.25,16.262,36.25,36.25C348.75,1017.429,332.488,1033.69,312.5,1033.69z M312.5,966.19c-17.231,0-31.25,14.019-31.25,31.25
				s14.019,31.25,31.25,31.25s31.25-14.019,31.25-31.25S329.731,966.19,312.5,966.19z"/>
		</g>
		<g>
			<g>
				<rect x="486.006" y="568.026" style="fill:#FFFFFF;" width="1038.994" height="768.164"/>
				<path style="fill:#9192FF;" d="M1527.5,1338.69H483.506V565.526H1527.5V1338.69z M488.506,1333.69H1522.5V570.526H488.506
					V1333.69z"/>
			</g>
			<g>
				<rect x="558.003" y="1086.698" style="fill:#D1D1FF;" width="85" height="164.492"/>
				<rect x="693.003" y="1004.672" style="fill:#D1D1FF;" width="85" height="246.519"/>
				<rect x="828.003" y="835.487" style="fill:#D1D1FF;" width="85" height="415.703"/>
				<rect x="963.003" y="955.6" style="fill:#D1D1FF;" width="85" height="295.591"/>
				<rect x="1098.003" y="825.238" style="fill:#D1D1FF;" width="85" height="425.952"/>
				<rect x="1233.003" y="847.489" style="fill:#D1D1FF;" width="85" height="403.701"/>
				<rect x="1368.003" y="699.989" style="fill:#D1D1FF;" width="85" height="551.201"/>
				<polygon style="fill:#3335CF;" points="583.634,1185.919 581.366,1181.462 723.336,1109.231 869.748,909.808 1003.791,1050.114 
					1141.593,912.312 1275.235,928.549 1409.365,774.548 1413.135,777.833 1277.265,933.832 1143.407,917.569 1003.709,1057.267 
					870.251,917.573 726.664,1113.149 				"/>
			</g>
			<rect x="796.336" y="662.857" style="fill:#3335CF;" width="418.333" height="5"/>
			<rect x="937.543" y="717.857" style="fill:#3335CF;" width="135.92" height="5"/>
		</g>
		<g>
			<g>
				<path style="fill:#3335CF;" d="M469.222,1483.074c8.154-42.981,2.849-88.72-14.882-128.311
					c-17.731-39.591-47.789-72.812-84.32-93.193c18.505,23.472,23.274,55.679,25.149,86.234
					c1.875,30.555,1.739,62.101,12.825,90.364c11.086,28.263,37.254,52.725,65.875,49.182L469.222,1483.074z"/>
				<path style="fill:#3335CF;" d="M469.823,1493.908c-8.154-42.981-2.849-88.72,14.882-128.311
					c17.731-39.591,47.788-72.811,84.32-93.193c-18.505,23.471-23.274,55.679-25.149,86.234
					c-1.875,30.555-1.739,62.101-12.825,90.364c-11.086,28.263-37.254,52.725-65.875,49.182L469.823,1493.908z"/>
				<path style="fill:#D1D1FF;" d="M437.029,1473.465c-18.438-30.685-23.472-70.073-13.404-104.873
					c10.068-34.8,35.056-64.38,66.531-78.758c-6.623,44.007,26.078,86.51,20.235,130.642c-3.782,28.567-25.236,53.553-51.66,60.167
					L437.029,1473.465z"/>
				<path style="fill:#9192FF;" d="M450.447,1532.526c-0.079-43.845,15.005-87.594,42.316-122.726
					c27.311-35.132,66.696-61.452,110.485-73.834c-24.863,19.164-36.606,49.755-44.872,79.328
					c-8.266,29.573-14.553,60.536-32.344,85.943c-17.791,25.408-51.17,43.948-81.498,34.515L450.447,1532.526z"/>
				<path style="fill:#9192FF;" d="M464.23,1534.878c0.073-43.845-13.776-87.594-38.849-122.726
					c-25.074-35.132-61.232-61.452-101.434-73.834c22.826,19.164,33.607,49.755,41.196,79.328
					c7.589,29.573,13.36,60.536,29.694,85.943c16.334,25.408,46.978,43.948,74.822,34.515L464.23,1534.878z"/>
			</g>
			<g>
				<polygon style="fill:#FFFFFF;" points="537.785,1684.509 379.409,1684.509 352.18,1519.599 565.014,1519.599 				"/>
				<path style="fill:#9192FF;" d="M539.375,1686.385H377.818l-27.849-168.661h217.254L539.375,1686.385z M381,1682.635h155.194
					l26.61-161.161H354.39L381,1682.635z"/>
			</g>
		</g>
		<g>
			<g>
				<rect x="264.978" y="441.049" style="fill:#FFFFFF;" width="482.581" height="379.067"/>
				<path style="fill:#9192FF;" d="M750.06,822.616H262.478V438.549H750.06V822.616z M267.478,817.616H745.06V443.549H267.478
					V817.616z"/>
			</g>
			<g>
				<g>
					<rect x="330.537" y="503.15" style="fill:#D1D1FF;" width="108.842" height="61.633"/>
					<g>
						<rect x="485.277" y="509.093" style="fill:#9192FF;" width="198.014" height="2.623"/>
						<rect x="485.277" y="532.656" style="fill:#D1D1FF;" width="198.014" height="2.623"/>
						<rect x="485.277" y="556.218" style="fill:#D1D1FF;" width="198.014" height="2.623"/>
					</g>
				</g>
				<g>
					<g>
						<rect x="381.691" y="687.747" style="fill:#D1D1FF;" width="22.73" height="70.417"/>
						<rect x="404.421" y="653.482" style="fill:#9192FF;" width="22.73" height="104.682"/>
					</g>
					<g>
						<rect x="466.491" y="641.634" style="fill:#D1D1FF;" width="22.73" height="116.089"/>
						<rect x="489.221" y="714.758" style="fill:#9192FF;" width="22.73" height="42.965"/>
					</g>
					<g>
						<rect x="551.292" y="677.68" style="fill:#D1D1FF;" width="22.73" height="80.387"/>
						<rect x="574.022" y="659.904" style="fill:#9192FF;" width="22.73" height="98.163"/>
					</g>
					<g>
						<rect x="636.093" y="701.489" style="fill:#D1D1FF;" width="22.73" height="56.064"/>
						<rect x="658.823" y="623.795" style="fill:#9192FF;" width="22.73" height="133.758"/>
					</g>
				</g>
				<polygon style="fill:#9192FF;" points="681.553,758.864 331.641,758.864 331.641,617.675 334.264,617.675 334.264,756.241 
					681.553,756.241 				"/>
			</g>
		</g>
		<g>
			<g>
				<g>
					<g>
						<polygon style="fill:#1B1B43;" points="1681.351,1616.816 1696.351,1683.884 1594.476,1683.691 1636.976,1647.009 
							1633.851,1613.691 						"/>
						
							<rect x="1643.538" y="1643.079" transform="matrix(0.6433 -0.7656 0.7656 0.6433 -679.4949 1849.6365)" style="fill:#EBEBFF;" width="3.75" height="22.042"/>
					</g>
					<g>
						<polygon style="fill:#1B1B43;" points="1480.726,1615.759 1488.226,1683.884 1378.851,1683.884 1428.851,1647.009 
							1428.851,1613.259 						"/>
						
							<rect x="1435.413" y="1643.079" transform="matrix(0.6433 -0.7656 0.7656 0.6433 -753.7239 1690.3005)" style="fill:#EBEBFF;" width="3.75" height="22.042"/>
					</g>
					<path style="fill:#3335CF;" d="M1699.476,1624.941l-16.25,0.225l-48.225,0.65l-26.775,0.375
						c-26.25-90.725-50.825-179.65-70.925-263.675c-3.95-16.475-7.725-32.775-11.275-48.825
						c-13.225-59.525-23.775-116.15-30.5-168.625c-1.45-11.275-2.725-22.35-3.8-33.225c-0.875-8.675-1.625-17.225-2.25-25.65l120,20
						c1.2,11.375,2.475,22.775,3.825,34.25C1631.376,1295.365,1662.251,1458.19,1699.476,1624.941z"/>
					<path style="fill:#3335CF;" d="M1545.726,1102.441l-3.8,40.8l-15.325,164.2l-0.575,6.25l-29.05,311.25h-89.575
						c1.775-180.05,7.65-351.2,31.25-477.625c1.725-9.325,3.575-18.375,5.5-27.2l47.575-8.275L1545.726,1102.441z"/>
					
						<rect x="1521.143" y="1196.213" transform="matrix(0.9816 -0.1907 0.1907 0.9816 -217.2948 313.981)" style="fill:#1B1B43;" width="2.5" height="179.121"/>
					<path style="opacity:0.3;fill:#1B1B43;" d="M1613.301,1140.441l-71.375,2.8l-46.4,1.825l-56.875,2.25
						c1.725-9.325,3.575-18.375,5.5-27.2l47.575-8.275c-0.875-8.675-1.625-17.225-2.25-25.65l120,20
						C1610.676,1117.565,1611.951,1128.965,1613.301,1140.441z"/>
				</g>
				<g>
					<path style="fill:#FFA121;" d="M1479.784,914.959l45.974-5.747l95.97,20.113l0.551,173.013
						c0.015,4.744-1.933,9.282-5.381,12.539l0,0c-3.173,2.997-7.368,4.673-11.733,4.688l-161.011,0.551l-31.032-93.672l29.883-88.5
						L1479.784,914.959z"/>
					<path style="fill:#1B1B43;" d="M1537.125,952.87c-9.924,0-19.548-3.527-27.042-10.581l1.285-1.365
						c14.28,13.44,36.718,13.418,53.352-0.046l1.18,1.457C1557.225,949.358,1547.025,952.87,1537.125,952.87z"/>
					<g>
						<path style="fill:#FFA121;" d="M1639.887,942.451c-3.503-15.785-16.459-27.722-32.477-29.923l-61.268-8.421l37.083,63.333
							l11.457,39.634l57.74-8.143L1639.887,942.451z"/>
						<path style="fill:#FFBC96;" d="M1664.776,1066.691c-1.45,21.425-14.4,30.55-30.85,34.3c-17.15,3.9-38.075,1.975-53.8,2.025
							c-25.85,0.075-51.7-1.05-77.525-2.45l-65.625,0.625l-7.5-11.675c8.55-12.075,31.675-27.9,72.075-18.325l104.8-23.75
							l-11.675-40.375l57.75-8.125l11.825,53.325C1664.951,1057.615,1665.101,1062.39,1664.776,1066.691z"/>
					</g>
					<g>
						<polygon style="fill:#FFBC96;" points="1383.226,1023.065 1424.476,1074.941 1431.976,1076.816 1438.159,1016.44 
							1395.949,996.52 						"/>
						<path style="fill:#FFA121;" d="M1520.726,903.69l-60.243,9.535c-16.675,2.639-30.989,13.305-38.286,28.53l-26.248,54.765
							l42.21,19.919l4.442-43.374L1520.726,903.69z"/>
					</g>
					<path style="opacity:0.2;fill:#FE5B52;" d="M1664.776,1066.691c-1.45,21.425-14.4,30.55-30.85,34.3
						c-3.275-4.025-5.275-9.175-5.275-14.8c0-12.875,10.45-23.325,23.325-23.325
						C1656.701,1062.865,1661.101,1064.291,1664.776,1066.691z"/>
					
						<rect x="1377.444" y="1030.353" transform="matrix(0.1125 -0.9937 0.9937 0.1125 249.7822 2342.23)" style="fill:#1B1B43;" width="117.188" height="1.875"/>
					
						<rect x="1593.851" y="965.803" transform="matrix(0.9607 -0.2777 0.2777 0.9607 -217.0355 482.4828)" style="fill:#1B1B43;" width="1.875" height="83.275"/>
				</g>
				<g>
					<path style="fill:#1B1B43;" d="M1559.735,766.835c-0.321-4.226-0.12-8.569,1.177-12.713c1.273-4.119,3.957-7.973,7.793-10.241
						c1.907-1.12,4.019-1.884,6.187-2.253c2.169-0.377,4.38-0.377,6.546-0.128c4.338,0.508,8.504,2.082,12.159,4.444
						c3.653,2.355,6.788,5.632,8.72,9.61c1.97,3.95,2.399,8.686,1.167,12.911c-1.209,4.25-3.753,7.909-6.692,11.004
						c-3.005,3.061-6.423,5.644-10.032,7.862l-0.401-0.614c3.424-2.416,6.703-5.052,9.473-8.142
						c2.765-3.062,5.067-6.611,6.07-10.537c1.013-3.901,0.646-8.11-1.191-11.703c-1.779-3.62-4.733-6.607-8.13-8.836
						c-3.401-2.238-7.316-3.752-11.354-4.253c-4.024-0.525-8.212,0.046-11.725,2.004c-3.518,1.967-6.057,5.411-7.386,9.279
						c-0.692,1.931-1.122,3.964-1.382,6.023c-0.247,2.063-0.288,4.153-0.266,6.245L1559.735,766.835z"/>
					<circle style="fill:#1B1B43;" cx="1580.195" cy="767.798" r="20.045"/>
					<path style="fill:#1B1B43;" d="M1595.376,878.69l-10.75-16.45l4.15,18.2l-37.1,9.8l-69.7,2.825l5.625-55.325
						c-17.8-8.75-30.425-65.15,37.15-74.65c12.275-1.725,24.875-0.625,36.275,4.2c34.75,14.7,46.5,53.675,49.7,107.35
						L1595.376,878.69z"/>
					<path style="fill:#FFBC96;" d="M1537.455,937.232L1537.455,937.232c-15.038,0-27.229-12.191-27.229-27.229v-59.021h54.458
						v59.021C1564.684,925.041,1552.494,937.232,1537.455,937.232z"/>
					<path style="fill:#1B1B43;" d="M1547.098,875.774c-5.83,17.183-19.484,25.225-36.875,29.583v-25.625L1547.098,875.774z"/>
					<path style="fill:#FFBC96;" d="M1563.526,793.69l-1.758,76.458c0,0-32.142,23.392-54.642,16.667
						c-7.55-2.25-12.675-10.825-16.15-21.5c-1.65-5.075-2.925-10.65-3.925-16.25c-3.525-20.125-3.35-40.675-3.35-40.675
						L1563.526,793.69z"/>
					<path style="fill:#1B1B43;" d="M1497.77,840.714c0,2.274-1.364,4.117-3.047,4.117s-3.047-1.843-3.047-4.117
						c0-2.274,1.364-4.117,3.047-4.117S1497.77,838.44,1497.77,840.714z"/>
					<ellipse style="fill:#1B1B43;" cx="1517.86" cy="838.902" rx="3.438" ry="4.766"/>
					<path style="fill:#1B1B43;" d="M1529.072,829.199c-0.125,1.168-4.031,1.437-8.367,0.679c-4.335-0.758-8.031-0.537-7.333-3.423
						c0.571-2.359,3.999-2.156,8.334-1.399C1526.042,825.814,1529.181,828.177,1529.072,829.199z"/>
					<path style="fill:#1B1B43;" d="M1486.662,831.825c0.152,1.152,3.48,1.101,7.131-0.007s6.798-1.19,6.09-4.005
						c-0.578-2.301-3.481-1.819-7.132-0.711C1489.101,828.21,1486.529,830.817,1486.662,831.825z"/>
					<path style="opacity:0.2;fill:#FE5B52;" d="M1544.007,848.847c0,4.919-3.987,8.906-8.906,8.906s-8.906-3.987-8.906-8.906
						c0-4.919,3.987-8.906,8.906-8.906S1544.007,843.928,1544.007,848.847z"/>
					<path style="opacity:0.2;fill:#FE5B52;" d="M1494.951,857.916c0,3.1-1.575,5.8-3.975,7.4c-1.65-5.075-2.925-10.65-3.925-16.25
						C1491.501,849.565,1494.951,853.34,1494.951,857.916z"/>
					<path style="fill:#1B1B43;" d="M1504.807,844.348c0.098,0.79-0.091,1.61-0.394,2.327c-0.311,0.722-0.723,1.346-1.133,1.917
						c-0.82,1.144-1.619,2.142-1.827,3.04c-0.11,0.433-0.075,0.886,0.039,1.342c0.103,0.443,0.352,0.843,0.707,1.231
						c0.725,0.771,1.865,1.359,3.104,1.811l-0.091,0.973c-1.472,0.172-3.074-0.105-4.45-1.125c-0.685-0.504-1.27-1.254-1.584-2.123
						c-0.266-0.852-0.392-1.809-0.138-2.714c0.519-1.79,1.687-2.864,2.605-3.806c0.959-0.96,1.775-1.778,2.187-2.939
						L1504.807,844.348z"/>
					<path style="fill:#FFFFFF;" d="M1502.445,864.628c3.281,10.469,17.344,5.156,18.438-4.688L1502.445,864.628z"/>
					<path style="fill:#1B1B43;" d="M1481.038,820.565c23.529-0.042,43.276-2.207,61.875-11.25
						c2.003,15.351,8.595,22.765,17.5,26.875l18.75-15.625l-9.688-31.563l-50.938-2.813l-39.375,19.688L1481.038,820.565z"/>
					<g>
						
							<ellipse transform="matrix(0.5754 -0.8179 0.8179 0.5754 -22.8471 1637.9535)" style="fill:#FFBC96;" cx="1566.046" cy="840.98" rx="15.948" ry="11.098"/>
						<path style="fill:#1B1B43;" d="M1561.67,846.171c-0.359-1.296-0.471-2.67-0.312-4.063c0.153-1.389,0.625-2.816,1.481-4.042
							c0.855-1.225,2.079-2.178,3.399-2.734c1.319-0.566,2.716-0.785,4.07-0.699l0.168,0.963c-1.167,0.548-2.261,1.056-3.217,1.68
							c-0.953,0.625-1.757,1.354-2.388,2.225c-0.64,0.869-1.073,1.906-1.421,3.025c-0.34,1.125-0.555,2.334-0.804,3.599
							L1561.67,846.171z"/>
					</g>
					<path style="fill:#FFA121;" d="M1586.559,787.024c-2.597-1.513-4.819-3.261-7.016-4.981l-6.34-5.229
						c-2.081-1.728-4.142-3.431-6.282-5.074c-2.137-1.669-4.347-3.217-6.82-4.924c3.001-0.328,6.011,0.387,8.768,1.509
						c2.759,1.152,5.284,2.769,7.533,4.649c2.253,1.882,4.246,4.028,5.971,6.36C1584.074,781.688,1585.57,784.186,1586.559,787.024z
						"/>
				</g>
				<g>
					<g>
						<rect x="1431.559" y="1100.774" style="fill:#1B1B43;" width="66.25" height="19.583"/>
						<polygon style="fill:#EBEBFF;" points="1452.809,1120.363 1302.809,1120.363 1236.976,978.167 1386.976,978.167 						"/>
					</g>
					<g>
						<path style="fill:#FFBC96;" d="M1397.288,1114.003c-3.521,0.64-5.619,3.524-5.786,6.953v-15.502
							c0-3.124-2.228-5.971-5.332-6.325c-3.556-0.406-6.557,2.28-6.723,5.71v-6.249c0-3.16-2.274-6.041-5.419-6.355
							c-3.617-0.362-6.666,2.468-6.666,6.011v6.593c-0.167-3.43-3.167-6.116-6.723-5.71c-3.104,0.354-5.332,3.201-5.332,6.325
							v12.301c-0.166-3.141-2.563-7.043-5.832-7.347c-6.719-0.625-5.24,11.183-5.24,11.183c1.958,11.942,5.488,13.26,12.648,13.772
							c11.168,0.799,22.483,0.769,33.929-0.009c7.198-0.489,8.33-1.264,11.475-11.976
							C1403.349,1118.772,1402.445,1113.066,1397.288,1114.003z"/>
						<g>
							<path style="fill:#D28572;" d="M1355.467,1109.306c0.5,2.523,0.681,5.054,0.775,7.589c0.04,1.267,0.045,2.535-0.005,3.805
								c-0.047,1.27-0.141,2.541-0.352,3.815l-0.733,0.02c-0.281-1.261-0.444-2.525-0.561-3.79c-0.12-1.265-0.185-2.532-0.214-3.799
								c-0.045-2.535-0.003-5.073,0.358-7.62L1355.467,1109.306z"/>
							<path style="fill:#D28572;" d="M1367.729,1104.829c0.505,2.679,0.691,5.366,0.79,8.056c0.043,1.345,0.05,2.691,0.002,4.039
								c-0.045,1.348-0.136,2.696-0.345,4.048l-0.733,0.02c-0.284-1.338-0.449-2.68-0.568-4.023
								c-0.122-1.343-0.19-2.687-0.221-4.033c-0.05-2.691-0.013-5.385,0.343-8.087L1367.729,1104.829z"/>
							<path style="fill:#D28572;" d="M1379.813,1104.824c0.539,2.533,0.759,5.08,0.893,7.63c0.06,1.276,0.084,2.553,0.054,3.832
								c-0.028,1.279-0.101,2.561-0.293,3.847l-0.732,0.031c-0.301-1.265-0.483-2.536-0.62-3.808
								c-0.139-1.272-0.224-2.547-0.273-3.823c-0.084-2.552-0.082-5.109,0.239-7.679L1379.813,1104.824z"/>
							<path style="fill:#D28572;" d="M1395.466,1114.773c-0.561,0.721-0.956,1.6-1.339,2.501c-0.371,0.906-0.727,1.835-1.073,2.773
								c-0.351,0.937-0.704,1.88-1.09,2.819c-0.384,0.94-0.792,1.879-1.301,2.797l-0.706-0.195c0.036-1.057,0.203-2.085,0.437-3.098
								c0.232-1.014,0.539-2.011,0.917-2.989c0.385-0.974,0.821-1.94,1.399-2.85c0.576-0.893,1.266-1.824,2.339-2.361
								L1395.466,1114.773z"/>
						</g>
					</g>
				</g>
			</g>
			<g>
				<g>
					<polygon style="fill:#FFFFFF;" points="1706.862,794.02 1706.862,862.674 1675.196,885.174 1706.862,885.174 1824.662,885.174 
						1824.662,794.02 					"/>
					<path style="fill:#9192FF;" d="M1825.911,886.424h-154.633l34.334-24.395V792.77h120.299V886.424z M1679.112,883.924h144.299
						V795.27h-115.299v68.049L1679.112,883.924z"/>
				</g>
				<polygon style="fill:#9192FF;" points="1764.154,863.831 1744.919,845.309 1748.388,841.707 1762.902,855.685 1787.584,810.435 
					1791.973,812.83 				"/>
			</g>
		</g>
		<rect x="212.766" y="1682.635" style="fill:#1B1B43;" width="1616.056" height="3.75"/>
	</g>
</g>
</svg>
